<svg width="509" height="454" viewBox="0 0 509 454" fill="none" xmlns="http://www.w3.org/2000/svg">
<path fill-rule="evenodd" clip-rule="evenodd" d="M352.534 0.293795C352.534 0.293795 459.747 12.6053 450.913 117.955C444.506 194.461 490.867 222.465 504.57 265.333C519.399 311.566 489.054 432.877 365.944 392.2C242.835 351.522 237.142 420.904 172.124 451.086C107.107 481.269 -85.7199 223.269 161.476 81.8086C239.265 37.2384 243.673 -1.32884 352.534 0.293795Z" fill="url(#paint0_linear)"/>
<g opacity="0.5">
<path d="M3.16038 253.345C4.90584 253.345 6.32076 251.924 6.32076 250.172C6.32076 248.42 4.90584 247 3.16038 247C1.41492 247 0 248.42 0 250.172C0 251.924 1.41492 253.345 3.16038 253.345Z" fill="#BAD9E7"/>
<path d="M28.4434 253.345C30.1889 253.345 31.6038 251.924 31.6038 250.172C31.6038 248.42 30.1889 247 28.4434 247C26.6979 247 25.283 248.42 25.283 250.172C25.283 251.924 26.6979 253.345 28.4434 253.345Z" fill="#BAD9E7"/>
<path d="M56.8868 250.172C56.8868 251.924 55.4719 253.345 53.7264 253.345C51.981 253.345 50.566 251.924 50.566 250.172C50.566 248.42 51.981 247 53.7264 247C55.4719 247 56.8868 248.42 56.8868 250.172Z" fill="#BAD9E7"/>
<path d="M79.0094 253.345C80.7549 253.345 82.1698 251.924 82.1698 250.172C82.1698 248.42 80.7549 247 79.0094 247C77.264 247 75.8491 248.42 75.8491 250.172C75.8491 251.924 77.264 253.345 79.0094 253.345Z" fill="#BAD9E7"/>
<path d="M107.453 250.172C107.453 251.924 106.038 253.345 104.292 253.345C102.547 253.345 101.132 251.924 101.132 250.172C101.132 248.42 102.547 247 104.292 247C106.038 247 107.453 248.42 107.453 250.172Z" fill="#BAD9E7"/>
<path d="M129.575 253.345C131.321 253.345 132.736 251.924 132.736 250.172C132.736 248.42 131.321 247 129.575 247C127.83 247 126.415 248.42 126.415 250.172C126.415 251.924 127.83 253.345 129.575 253.345Z" fill="#BAD9E7"/>
<path d="M158.019 250.172C158.019 251.924 156.604 253.345 154.858 253.345C153.113 253.345 151.698 251.924 151.698 250.172C151.698 248.42 153.113 247 154.858 247C156.604 247 158.019 248.42 158.019 250.172Z" fill="#BAD9E7"/>
<path d="M180.142 253.345C181.887 253.345 183.302 251.924 183.302 250.172C183.302 248.42 181.887 247 180.142 247C178.396 247 176.981 248.42 176.981 250.172C176.981 251.924 178.396 253.345 180.142 253.345Z" fill="#BAD9E7"/>
<path d="M208.585 250.172C208.585 251.924 207.17 253.345 205.425 253.345C203.679 253.345 202.264 251.924 202.264 250.172C202.264 248.42 203.679 247 205.425 247C207.17 247 208.585 248.42 208.585 250.172Z" fill="#BAD9E7"/>
<path d="M230.708 253.345C232.453 253.345 233.868 251.924 233.868 250.172C233.868 248.42 232.453 247 230.708 247C228.962 247 227.547 248.42 227.547 250.172C227.547 251.924 228.962 253.345 230.708 253.345Z" fill="#BAD9E7"/>
<path d="M259.151 250.172C259.151 251.924 257.736 253.345 255.991 253.345C254.245 253.345 252.83 251.924 252.83 250.172C252.83 248.42 254.245 247 255.991 247C257.736 247 259.151 248.42 259.151 250.172Z" fill="#BAD9E7"/>
<path d="M281.274 253.345C283.019 253.345 284.434 251.924 284.434 250.172C284.434 248.42 283.019 247 281.274 247C279.528 247 278.113 248.42 278.113 250.172C278.113 251.924 279.528 253.345 281.274 253.345Z" fill="#BAD9E7"/>
<path d="M309.717 250.172C309.717 251.924 308.302 253.345 306.557 253.345C304.811 253.345 303.396 251.924 303.396 250.172C303.396 248.42 304.811 247 306.557 247C308.302 247 309.717 248.42 309.717 250.172Z" fill="#BAD9E7"/>
<path d="M331.84 253.345C333.585 253.345 335 251.924 335 250.172C335 248.42 333.585 247 331.84 247C330.094 247 328.679 248.42 328.679 250.172C328.679 251.924 330.094 253.345 331.84 253.345Z" fill="#BAD9E7"/>
<path d="M6.32076 275.552C6.32076 277.304 4.90584 278.724 3.16038 278.724C1.41492 278.724 0 277.304 0 275.552C0 273.8 1.41492 272.379 3.16038 272.379C4.90584 272.379 6.32076 273.8 6.32076 275.552Z" fill="#BAD9E7"/>
<path d="M28.4434 278.724C30.1889 278.724 31.6038 277.304 31.6038 275.552C31.6038 273.8 30.1889 272.379 28.4434 272.379C26.6979 272.379 25.283 273.8 25.283 275.552C25.283 277.304 26.6979 278.724 28.4434 278.724Z" fill="#BAD9E7"/>
<path d="M56.8868 275.552C56.8868 277.304 55.4719 278.724 53.7264 278.724C51.981 278.724 50.566 277.304 50.566 275.552C50.566 273.8 51.981 272.379 53.7264 272.379C55.4719 272.379 56.8868 273.8 56.8868 275.552Z" fill="#BAD9E7"/>
<path d="M79.0094 278.724C80.7549 278.724 82.1698 277.304 82.1698 275.552C82.1698 273.8 80.7549 272.379 79.0094 272.379C77.264 272.379 75.8491 273.8 75.8491 275.552C75.8491 277.304 77.264 278.724 79.0094 278.724Z" fill="#BAD9E7"/>
<path d="M107.453 275.552C107.453 277.304 106.038 278.724 104.292 278.724C102.547 278.724 101.132 277.304 101.132 275.552C101.132 273.8 102.547 272.379 104.292 272.379C106.038 272.379 107.453 273.8 107.453 275.552Z" fill="#BAD9E7"/>
<path d="M129.575 278.724C131.321 278.724 132.736 277.304 132.736 275.552C132.736 273.8 131.321 272.379 129.575 272.379C127.83 272.379 126.415 273.8 126.415 275.552C126.415 277.304 127.83 278.724 129.575 278.724Z" fill="#BAD9E7"/>
<path d="M158.019 275.552C158.019 277.304 156.604 278.724 154.858 278.724C153.113 278.724 151.698 277.304 151.698 275.552C151.698 273.8 153.113 272.379 154.858 272.379C156.604 272.379 158.019 273.8 158.019 275.552Z" fill="#BAD9E7"/>
<path d="M180.142 278.724C181.887 278.724 183.302 277.304 183.302 275.552C183.302 273.8 181.887 272.379 180.142 272.379C178.396 272.379 176.981 273.8 176.981 275.552C176.981 277.304 178.396 278.724 180.142 278.724Z" fill="#BAD9E7"/>
<path d="M208.585 275.552C208.585 277.304 207.17 278.724 205.425 278.724C203.679 278.724 202.264 277.304 202.264 275.552C202.264 273.8 203.679 272.379 205.425 272.379C207.17 272.379 208.585 273.8 208.585 275.552Z" fill="#BAD9E7"/>
<path d="M230.708 278.724C232.453 278.724 233.868 277.304 233.868 275.552C233.868 273.8 232.453 272.379 230.708 272.379C228.962 272.379 227.547 273.8 227.547 275.552C227.547 277.304 228.962 278.724 230.708 278.724Z" fill="#BAD9E7"/>
<path d="M259.151 275.552C259.151 277.304 257.736 278.724 255.991 278.724C254.245 278.724 252.83 277.304 252.83 275.552C252.83 273.8 254.245 272.379 255.991 272.379C257.736 272.379 259.151 273.8 259.151 275.552Z" fill="#BAD9E7"/>
<path d="M281.274 278.724C283.019 278.724 284.434 277.304 284.434 275.552C284.434 273.8 283.019 272.379 281.274 272.379C279.528 272.379 278.113 273.8 278.113 275.552C278.113 277.304 279.528 278.724 281.274 278.724Z" fill="#BAD9E7"/>
<path d="M309.717 275.552C309.717 277.304 308.302 278.724 306.557 278.724C304.811 278.724 303.396 277.304 303.396 275.552C303.396 273.8 304.811 272.379 306.557 272.379C308.302 272.379 309.717 273.8 309.717 275.552Z" fill="#BAD9E7"/>
<path d="M331.84 278.724C333.585 278.724 335 277.304 335 275.552C335 273.8 333.585 272.379 331.84 272.379C330.094 272.379 328.679 273.8 328.679 275.552C328.679 277.304 330.094 278.724 331.84 278.724Z" fill="#BAD9E7"/>
<path d="M6.32076 300.931C6.32076 302.683 4.90584 304.103 3.16038 304.103C1.41492 304.103 0 302.683 0 300.931C0 299.179 1.41492 297.759 3.16038 297.759C4.90584 297.759 6.32076 299.179 6.32076 300.931Z" fill="#BAD9E7"/>
<path d="M28.4434 304.103C30.1889 304.103 31.6038 302.683 31.6038 300.931C31.6038 299.179 30.1889 297.759 28.4434 297.759C26.6979 297.759 25.283 299.179 25.283 300.931C25.283 302.683 26.6979 304.103 28.4434 304.103Z" fill="#BAD9E7"/>
<path d="M56.8868 300.931C56.8868 302.683 55.4719 304.103 53.7264 304.103C51.981 304.103 50.566 302.683 50.566 300.931C50.566 299.179 51.981 297.759 53.7264 297.759C55.4719 297.759 56.8868 299.179 56.8868 300.931Z" fill="#BAD9E7"/>
<path d="M79.0094 304.103C80.7549 304.103 82.1698 302.683 82.1698 300.931C82.1698 299.179 80.7549 297.759 79.0094 297.759C77.264 297.759 75.8491 299.179 75.8491 300.931C75.8491 302.683 77.264 304.103 79.0094 304.103Z" fill="#BAD9E7"/>
<path d="M107.453 300.931C107.453 302.683 106.038 304.103 104.292 304.103C102.547 304.103 101.132 302.683 101.132 300.931C101.132 299.179 102.547 297.759 104.292 297.759C106.038 297.759 107.453 299.179 107.453 300.931Z" fill="#BAD9E7"/>
<path d="M129.575 304.103C131.321 304.103 132.736 302.683 132.736 300.931C132.736 299.179 131.321 297.759 129.575 297.759C127.83 297.759 126.415 299.179 126.415 300.931C126.415 302.683 127.83 304.103 129.575 304.103Z" fill="#BAD9E7"/>
<path d="M158.019 300.931C158.019 302.683 156.604 304.103 154.858 304.103C153.113 304.103 151.698 302.683 151.698 300.931C151.698 299.179 153.113 297.759 154.858 297.759C156.604 297.759 158.019 299.179 158.019 300.931Z" fill="#BAD9E7"/>
<path d="M180.142 304.103C181.887 304.103 183.302 302.683 183.302 300.931C183.302 299.179 181.887 297.759 180.142 297.759C178.396 297.759 176.981 299.179 176.981 300.931C176.981 302.683 178.396 304.103 180.142 304.103Z" fill="#BAD9E7"/>
<path d="M208.585 300.931C208.585 302.683 207.17 304.103 205.425 304.103C203.679 304.103 202.264 302.683 202.264 300.931C202.264 299.179 203.679 297.759 205.425 297.759C207.17 297.759 208.585 299.179 208.585 300.931Z" fill="#BAD9E7"/>
<path d="M230.708 304.103C232.453 304.103 233.868 302.683 233.868 300.931C233.868 299.179 232.453 297.759 230.708 297.759C228.962 297.759 227.547 299.179 227.547 300.931C227.547 302.683 228.962 304.103 230.708 304.103Z" fill="#BAD9E7"/>
<path d="M259.151 300.931C259.151 302.683 257.736 304.103 255.991 304.103C254.245 304.103 252.83 302.683 252.83 300.931C252.83 299.179 254.245 297.759 255.991 297.759C257.736 297.759 259.151 299.179 259.151 300.931Z" fill="#BAD9E7"/>
<path d="M281.274 304.103C283.019 304.103 284.434 302.683 284.434 300.931C284.434 299.179 283.019 297.759 281.274 297.759C279.528 297.759 278.113 299.179 278.113 300.931C278.113 302.683 279.528 304.103 281.274 304.103Z" fill="#BAD9E7"/>
<path d="M309.717 300.931C309.717 302.683 308.302 304.103 306.557 304.103C304.811 304.103 303.396 302.683 303.396 300.931C303.396 299.179 304.811 297.759 306.557 297.759C308.302 297.759 309.717 299.179 309.717 300.931Z" fill="#BAD9E7"/>
<path d="M331.84 304.103C333.585 304.103 335 302.683 335 300.931C335 299.179 333.585 297.759 331.84 297.759C330.094 297.759 328.679 299.179 328.679 300.931C328.679 302.683 330.094 304.103 331.84 304.103Z" fill="#BAD9E7"/>
<path d="M6.32076 326.31C6.32076 328.062 4.90584 329.483 3.16038 329.483C1.41492 329.483 0 328.062 0 326.31C0 324.558 1.41492 323.138 3.16038 323.138C4.90584 323.138 6.32076 324.558 6.32076 326.31Z" fill="#BAD9E7"/>
<path d="M28.4434 329.483C30.1889 329.483 31.6038 328.062 31.6038 326.31C31.6038 324.558 30.1889 323.138 28.4434 323.138C26.6979 323.138 25.283 324.558 25.283 326.31C25.283 328.062 26.6979 329.483 28.4434 329.483Z" fill="#BAD9E7"/>
<path d="M56.8868 326.31C56.8868 328.062 55.4719 329.483 53.7264 329.483C51.981 329.483 50.566 328.062 50.566 326.31C50.566 324.558 51.981 323.138 53.7264 323.138C55.4719 323.138 56.8868 324.558 56.8868 326.31Z" fill="#BAD9E7"/>
<path d="M79.0094 329.483C80.7549 329.483 82.1698 328.062 82.1698 326.31C82.1698 324.558 80.7549 323.138 79.0094 323.138C77.264 323.138 75.8491 324.558 75.8491 326.31C75.8491 328.062 77.264 329.483 79.0094 329.483Z" fill="#BAD9E7"/>
<path d="M107.453 326.31C107.453 328.062 106.038 329.483 104.292 329.483C102.547 329.483 101.132 328.062 101.132 326.31C101.132 324.558 102.547 323.138 104.292 323.138C106.038 323.138 107.453 324.558 107.453 326.31Z" fill="#BAD9E7"/>
<path d="M129.575 329.483C131.321 329.483 132.736 328.062 132.736 326.31C132.736 324.558 131.321 323.138 129.575 323.138C127.83 323.138 126.415 324.558 126.415 326.31C126.415 328.062 127.83 329.483 129.575 329.483Z" fill="#BAD9E7"/>
<path d="M158.019 326.31C158.019 328.062 156.604 329.483 154.858 329.483C153.113 329.483 151.698 328.062 151.698 326.31C151.698 324.558 153.113 323.138 154.858 323.138C156.604 323.138 158.019 324.558 158.019 326.31Z" fill="#BAD9E7"/>
<path d="M180.142 329.483C181.887 329.483 183.302 328.062 183.302 326.31C183.302 324.558 181.887 323.138 180.142 323.138C178.396 323.138 176.981 324.558 176.981 326.31C176.981 328.062 178.396 329.483 180.142 329.483Z" fill="#BAD9E7"/>
<path d="M208.585 326.31C208.585 328.062 207.17 329.483 205.425 329.483C203.679 329.483 202.264 328.062 202.264 326.31C202.264 324.558 203.679 323.138 205.425 323.138C207.17 323.138 208.585 324.558 208.585 326.31Z" fill="#BAD9E7"/>
<path d="M230.708 329.483C232.453 329.483 233.868 328.062 233.868 326.31C233.868 324.558 232.453 323.138 230.708 323.138C228.962 323.138 227.547 324.558 227.547 326.31C227.547 328.062 228.962 329.483 230.708 329.483Z" fill="#BAD9E7"/>
<path d="M259.151 326.31C259.151 328.062 257.736 329.483 255.991 329.483C254.245 329.483 252.83 328.062 252.83 326.31C252.83 324.558 254.245 323.138 255.991 323.138C257.736 323.138 259.151 324.558 259.151 326.31Z" fill="#BAD9E7"/>
<path d="M281.274 329.483C283.019 329.483 284.434 328.062 284.434 326.31C284.434 324.558 283.019 323.138 281.274 323.138C279.528 323.138 278.113 324.558 278.113 326.31C278.113 328.062 279.528 329.483 281.274 329.483Z" fill="#BAD9E7"/>
<path d="M309.717 326.31C309.717 328.062 308.302 329.483 306.557 329.483C304.811 329.483 303.396 328.062 303.396 326.31C303.396 324.558 304.811 323.138 306.557 323.138C308.302 323.138 309.717 324.558 309.717 326.31Z" fill="#BAD9E7"/>
<path d="M331.84 329.483C333.585 329.483 335 328.062 335 326.31C335 324.558 333.585 323.138 331.84 323.138C330.094 323.138 328.679 324.558 328.679 326.31C328.679 328.062 330.094 329.483 331.84 329.483Z" fill="#BAD9E7"/>
<path d="M6.32076 351.69C6.32076 353.442 4.90584 354.862 3.16038 354.862C1.41492 354.862 0 353.442 0 351.69C0 349.938 1.41492 348.517 3.16038 348.517C4.90584 348.517 6.32076 349.938 6.32076 351.69Z" fill="#BAD9E7"/>
<path d="M28.4434 354.862C30.1889 354.862 31.6038 353.442 31.6038 351.69C31.6038 349.938 30.1889 348.517 28.4434 348.517C26.6979 348.517 25.283 349.938 25.283 351.69C25.283 353.442 26.6979 354.862 28.4434 354.862Z" fill="#BAD9E7"/>
<path d="M56.8868 351.69C56.8868 353.442 55.4719 354.862 53.7264 354.862C51.981 354.862 50.566 353.442 50.566 351.69C50.566 349.938 51.981 348.517 53.7264 348.517C55.4719 348.517 56.8868 349.938 56.8868 351.69Z" fill="#BAD9E7"/>
<path d="M79.0094 354.862C80.7549 354.862 82.1698 353.442 82.1698 351.69C82.1698 349.938 80.7549 348.517 79.0094 348.517C77.264 348.517 75.8491 349.938 75.8491 351.69C75.8491 353.442 77.264 354.862 79.0094 354.862Z" fill="#BAD9E7"/>
<path d="M107.453 351.69C107.453 353.442 106.038 354.862 104.292 354.862C102.547 354.862 101.132 353.442 101.132 351.69C101.132 349.938 102.547 348.517 104.292 348.517C106.038 348.517 107.453 349.938 107.453 351.69Z" fill="#BAD9E7"/>
<path d="M129.575 354.862C131.321 354.862 132.736 353.442 132.736 351.69C132.736 349.938 131.321 348.517 129.575 348.517C127.83 348.517 126.415 349.938 126.415 351.69C126.415 353.442 127.83 354.862 129.575 354.862Z" fill="#BAD9E7"/>
<path d="M158.019 351.69C158.019 353.442 156.604 354.862 154.858 354.862C153.113 354.862 151.698 353.442 151.698 351.69C151.698 349.938 153.113 348.517 154.858 348.517C156.604 348.517 158.019 349.938 158.019 351.69Z" fill="#BAD9E7"/>
<path d="M180.142 354.862C181.887 354.862 183.302 353.442 183.302 351.69C183.302 349.938 181.887 348.517 180.142 348.517C178.396 348.517 176.981 349.938 176.981 351.69C176.981 353.442 178.396 354.862 180.142 354.862Z" fill="#BAD9E7"/>
<path d="M208.585 351.69C208.585 353.442 207.17 354.862 205.425 354.862C203.679 354.862 202.264 353.442 202.264 351.69C202.264 349.938 203.679 348.517 205.425 348.517C207.17 348.517 208.585 349.938 208.585 351.69Z" fill="#BAD9E7"/>
<path d="M230.708 354.862C232.453 354.862 233.868 353.442 233.868 351.69C233.868 349.938 232.453 348.517 230.708 348.517C228.962 348.517 227.547 349.938 227.547 351.69C227.547 353.442 228.962 354.862 230.708 354.862Z" fill="#BAD9E7"/>
<path d="M259.151 351.69C259.151 353.442 257.736 354.862 255.991 354.862C254.245 354.862 252.83 353.442 252.83 351.69C252.83 349.938 254.245 348.517 255.991 348.517C257.736 348.517 259.151 349.938 259.151 351.69Z" fill="#BAD9E7"/>
<path d="M281.274 354.862C283.019 354.862 284.434 353.442 284.434 351.69C284.434 349.938 283.019 348.517 281.274 348.517C279.528 348.517 278.113 349.938 278.113 351.69C278.113 353.442 279.528 354.862 281.274 354.862Z" fill="#BAD9E7"/>
<path d="M309.717 351.69C309.717 353.442 308.302 354.862 306.557 354.862C304.811 354.862 303.396 353.442 303.396 351.69C303.396 349.938 304.811 348.517 306.557 348.517C308.302 348.517 309.717 349.938 309.717 351.69Z" fill="#BAD9E7"/>
<path d="M331.84 354.862C333.585 354.862 335 353.442 335 351.69C335 349.938 333.585 348.517 331.84 348.517C330.094 348.517 328.679 349.938 328.679 351.69C328.679 353.442 330.094 354.862 331.84 354.862Z" fill="#BAD9E7"/>
<path d="M6.32076 377.069C6.32076 378.821 4.90584 380.241 3.16038 380.241C1.41492 380.241 0 378.821 0 377.069C0 375.317 1.41492 373.897 3.16038 373.897C4.90584 373.897 6.32076 375.317 6.32076 377.069Z" fill="#BAD9E7"/>
<path d="M28.4434 380.241C30.1889 380.241 31.6038 378.821 31.6038 377.069C31.6038 375.317 30.1889 373.897 28.4434 373.897C26.6979 373.897 25.283 375.317 25.283 377.069C25.283 378.821 26.6979 380.241 28.4434 380.241Z" fill="#BAD9E7"/>
<path d="M56.8868 377.069C56.8868 378.821 55.4719 380.241 53.7264 380.241C51.981 380.241 50.566 378.821 50.566 377.069C50.566 375.317 51.981 373.897 53.7264 373.897C55.4719 373.897 56.8868 375.317 56.8868 377.069Z" fill="#BAD9E7"/>
<path d="M79.0094 380.241C80.7549 380.241 82.1698 378.821 82.1698 377.069C82.1698 375.317 80.7549 373.897 79.0094 373.897C77.264 373.897 75.8491 375.317 75.8491 377.069C75.8491 378.821 77.264 380.241 79.0094 380.241Z" fill="#BAD9E7"/>
<path d="M107.453 377.069C107.453 378.821 106.038 380.241 104.292 380.241C102.547 380.241 101.132 378.821 101.132 377.069C101.132 375.317 102.547 373.897 104.292 373.897C106.038 373.897 107.453 375.317 107.453 377.069Z" fill="#BAD9E7"/>
<path d="M129.575 380.241C131.321 380.241 132.736 378.821 132.736 377.069C132.736 375.317 131.321 373.897 129.575 373.897C127.83 373.897 126.415 375.317 126.415 377.069C126.415 378.821 127.83 380.241 129.575 380.241Z" fill="#BAD9E7"/>
<path d="M158.019 377.069C158.019 378.821 156.604 380.241 154.858 380.241C153.113 380.241 151.698 378.821 151.698 377.069C151.698 375.317 153.113 373.897 154.858 373.897C156.604 373.897 158.019 375.317 158.019 377.069Z" fill="#BAD9E7"/>
<path d="M180.142 380.241C181.887 380.241 183.302 378.821 183.302 377.069C183.302 375.317 181.887 373.897 180.142 373.897C178.396 373.897 176.981 375.317 176.981 377.069C176.981 378.821 178.396 380.241 180.142 380.241Z" fill="#BAD9E7"/>
<path d="M208.585 377.069C208.585 378.821 207.17 380.241 205.425 380.241C203.679 380.241 202.264 378.821 202.264 377.069C202.264 375.317 203.679 373.897 205.425 373.897C207.17 373.897 208.585 375.317 208.585 377.069Z" fill="#BAD9E7"/>
<path d="M230.708 380.241C232.453 380.241 233.868 378.821 233.868 377.069C233.868 375.317 232.453 373.897 230.708 373.897C228.962 373.897 227.547 375.317 227.547 377.069C227.547 378.821 228.962 380.241 230.708 380.241Z" fill="#BAD9E7"/>
<path d="M259.151 377.069C259.151 378.821 257.736 380.241 255.991 380.241C254.245 380.241 252.83 378.821 252.83 377.069C252.83 375.317 254.245 373.897 255.991 373.897C257.736 373.897 259.151 375.317 259.151 377.069Z" fill="#BAD9E7"/>
<path d="M281.274 380.241C283.019 380.241 284.434 378.821 284.434 377.069C284.434 375.317 283.019 373.897 281.274 373.897C279.528 373.897 278.113 375.317 278.113 377.069C278.113 378.821 279.528 380.241 281.274 380.241Z" fill="#BAD9E7"/>
<path d="M309.717 377.069C309.717 378.821 308.302 380.241 306.557 380.241C304.811 380.241 303.396 378.821 303.396 377.069C303.396 375.317 304.811 373.897 306.557 373.897C308.302 373.897 309.717 375.317 309.717 377.069Z" fill="#BAD9E7"/>
<path d="M331.84 380.241C333.585 380.241 335 378.821 335 377.069C335 375.317 333.585 373.897 331.84 373.897C330.094 373.897 328.679 375.317 328.679 377.069C328.679 378.821 330.094 380.241 331.84 380.241Z" fill="#BAD9E7"/>
<path d="M6.32076 402.448C6.32076 404.2 4.90584 405.621 3.16038 405.621C1.41492 405.621 0 404.2 0 402.448C0 400.696 1.41492 399.276 3.16038 399.276C4.90584 399.276 6.32076 400.696 6.32076 402.448Z" fill="#BAD9E7"/>
<path d="M28.4434 405.621C30.1889 405.621 31.6038 404.2 31.6038 402.448C31.6038 400.696 30.1889 399.276 28.4434 399.276C26.6979 399.276 25.283 400.696 25.283 402.448C25.283 404.2 26.6979 405.621 28.4434 405.621Z" fill="#BAD9E7"/>
<path d="M56.8868 402.448C56.8868 404.2 55.4719 405.621 53.7264 405.621C51.981 405.621 50.566 404.2 50.566 402.448C50.566 400.696 51.981 399.276 53.7264 399.276C55.4719 399.276 56.8868 400.696 56.8868 402.448Z" fill="#BAD9E7"/>
<path d="M79.0094 405.621C80.7549 405.621 82.1698 404.2 82.1698 402.448C82.1698 400.696 80.7549 399.276 79.0094 399.276C77.264 399.276 75.8491 400.696 75.8491 402.448C75.8491 404.2 77.264 405.621 79.0094 405.621Z" fill="#BAD9E7"/>
<path d="M107.453 402.448C107.453 404.2 106.038 405.621 104.292 405.621C102.547 405.621 101.132 404.2 101.132 402.448C101.132 400.696 102.547 399.276 104.292 399.276C106.038 399.276 107.453 400.696 107.453 402.448Z" fill="#BAD9E7"/>
<path d="M129.575 405.621C131.321 405.621 132.736 404.2 132.736 402.448C132.736 400.696 131.321 399.276 129.575 399.276C127.83 399.276 126.415 400.696 126.415 402.448C126.415 404.2 127.83 405.621 129.575 405.621Z" fill="#BAD9E7"/>
<path d="M158.019 402.448C158.019 404.2 156.604 405.621 154.858 405.621C153.113 405.621 151.698 404.2 151.698 402.448C151.698 400.696 153.113 399.276 154.858 399.276C156.604 399.276 158.019 400.696 158.019 402.448Z" fill="#BAD9E7"/>
<path d="M180.142 405.621C181.887 405.621 183.302 404.2 183.302 402.448C183.302 400.696 181.887 399.276 180.142 399.276C178.396 399.276 176.981 400.696 176.981 402.448C176.981 404.2 178.396 405.621 180.142 405.621Z" fill="#BAD9E7"/>
<path d="M208.585 402.448C208.585 404.2 207.17 405.621 205.425 405.621C203.679 405.621 202.264 404.2 202.264 402.448C202.264 400.696 203.679 399.276 205.425 399.276C207.17 399.276 208.585 400.696 208.585 402.448Z" fill="#BAD9E7"/>
<path d="M230.708 405.621C232.453 405.621 233.868 404.2 233.868 402.448C233.868 400.696 232.453 399.276 230.708 399.276C228.962 399.276 227.547 400.696 227.547 402.448C227.547 404.2 228.962 405.621 230.708 405.621Z" fill="#BAD9E7"/>
<path d="M259.151 402.448C259.151 404.2 257.736 405.621 255.991 405.621C254.245 405.621 252.83 404.2 252.83 402.448C252.83 400.696 254.245 399.276 255.991 399.276C257.736 399.276 259.151 400.696 259.151 402.448Z" fill="#BAD9E7"/>
<path d="M281.274 405.621C283.019 405.621 284.434 404.2 284.434 402.448C284.434 400.696 283.019 399.276 281.274 399.276C279.528 399.276 278.113 400.696 278.113 402.448C278.113 404.2 279.528 405.621 281.274 405.621Z" fill="#BAD9E7"/>
<path d="M309.717 402.448C309.717 404.2 308.302 405.621 306.557 405.621C304.811 405.621 303.396 404.2 303.396 402.448C303.396 400.696 304.811 399.276 306.557 399.276C308.302 399.276 309.717 400.696 309.717 402.448Z" fill="#BAD9E7"/>
<path d="M331.84 405.621C333.585 405.621 335 404.2 335 402.448C335 400.696 333.585 399.276 331.84 399.276C330.094 399.276 328.679 400.696 328.679 402.448C328.679 404.2 330.094 405.621 331.84 405.621Z" fill="#BAD9E7"/>
<path d="M6.32076 427.828C6.32076 429.58 4.90584 431 3.16038 431C1.41492 431 0 429.58 0 427.828C0 426.076 1.41492 424.655 3.16038 424.655C4.90584 424.655 6.32076 426.076 6.32076 427.828Z" fill="#BAD9E7"/>
<path d="M28.4434 431C30.1889 431 31.6038 429.58 31.6038 427.828C31.6038 426.076 30.1889 424.655 28.4434 424.655C26.6979 424.655 25.283 426.076 25.283 427.828C25.283 429.58 26.6979 431 28.4434 431Z" fill="#BAD9E7"/>
<path d="M56.8868 427.828C56.8868 429.58 55.4719 431 53.7264 431C51.981 431 50.566 429.58 50.566 427.828C50.566 426.076 51.981 424.655 53.7264 424.655C55.4719 424.655 56.8868 426.076 56.8868 427.828Z" fill="#BAD9E7"/>
<path d="M79.0094 431C80.7549 431 82.1698 429.58 82.1698 427.828C82.1698 426.076 80.7549 424.655 79.0094 424.655C77.264 424.655 75.8491 426.076 75.8491 427.828C75.8491 429.58 77.264 431 79.0094 431Z" fill="#BAD9E7"/>
<path d="M107.453 427.828C107.453 429.58 106.038 431 104.292 431C102.547 431 101.132 429.58 101.132 427.828C101.132 426.076 102.547 424.655 104.292 424.655C106.038 424.655 107.453 426.076 107.453 427.828Z" fill="#BAD9E7"/>
<path d="M129.575 431C131.321 431 132.736 429.58 132.736 427.828C132.736 426.076 131.321 424.655 129.575 424.655C127.83 424.655 126.415 426.076 126.415 427.828C126.415 429.58 127.83 431 129.575 431Z" fill="#BAD9E7"/>
<path d="M158.019 427.828C158.019 429.58 156.604 431 154.858 431C153.113 431 151.698 429.58 151.698 427.828C151.698 426.076 153.113 424.655 154.858 424.655C156.604 424.655 158.019 426.076 158.019 427.828Z" fill="#BAD9E7"/>
<path d="M180.142 431C181.887 431 183.302 429.58 183.302 427.828C183.302 426.076 181.887 424.655 180.142 424.655C178.396 424.655 176.981 426.076 176.981 427.828C176.981 429.58 178.396 431 180.142 431Z" fill="#BAD9E7"/>
<path d="M208.585 427.828C208.585 429.58 207.17 431 205.425 431C203.679 431 202.264 429.58 202.264 427.828C202.264 426.076 203.679 424.655 205.425 424.655C207.17 424.655 208.585 426.076 208.585 427.828Z" fill="#BAD9E7"/>
<path d="M230.708 431C232.453 431 233.868 429.58 233.868 427.828C233.868 426.076 232.453 424.655 230.708 424.655C228.962 424.655 227.547 426.076 227.547 427.828C227.547 429.58 228.962 431 230.708 431Z" fill="#BAD9E7"/>
<path d="M259.151 427.828C259.151 429.58 257.736 431 255.991 431C254.245 431 252.83 429.58 252.83 427.828C252.83 426.076 254.245 424.655 255.991 424.655C257.736 424.655 259.151 426.076 259.151 427.828Z" fill="#BAD9E7"/>
<path d="M281.274 431C283.019 431 284.434 429.58 284.434 427.828C284.434 426.076 283.019 424.655 281.274 424.655C279.528 424.655 278.113 426.076 278.113 427.828C278.113 429.58 279.528 431 281.274 431Z" fill="#BAD9E7"/>
<path d="M309.717 427.828C309.717 429.58 308.302 431 306.557 431C304.811 431 303.396 429.58 303.396 427.828C303.396 426.076 304.811 424.655 306.557 424.655C308.302 424.655 309.717 426.076 309.717 427.828Z" fill="#BAD9E7"/>
<path d="M331.84 431C333.585 431 335 429.58 335 427.828C335 426.076 333.585 424.655 331.84 424.655C330.094 424.655 328.679 426.076 328.679 427.828C328.679 429.58 330.094 431 331.84 431Z" fill="#BAD9E7"/>
</g>
<defs>
<linearGradient id="paint0_linear" x1="385.06" y1="9.3894" x2="189.788" y2="469.649" gradientUnits="userSpaceOnUse">
<stop stop-color="#BAD9E7" stop-opacity="0.44"/>
<stop offset="1" stop-color="white"/>
</linearGradient>
</defs>
</svg>
