<svg width="682" height="646" viewBox="0 0 682 646" fill="none" xmlns="http://www.w3.org/2000/svg">
<g clip-path="url(#clip0)">
<g opacity="0.5">
<path d="M3.51759 27.6207C5.8935 27.6207 7.81947 25.6909 7.81947 23.3103C7.81947 20.9298 5.8935 19 3.51759 19C1.14167 19 -0.784302 20.9298 -0.784302 23.3103C-0.784302 25.6909 1.14167 27.6207 3.51759 27.6207Z" fill="#BAD9E7"/>
<path d="M37.9327 27.6207C40.3086 27.6207 42.2346 25.6909 42.2346 23.3103C42.2346 20.9298 40.3086 19 37.9327 19C35.5568 19 33.6308 20.9298 33.6308 23.3103C33.6308 25.6909 35.5568 27.6207 37.9327 27.6207Z" fill="#BAD9E7"/>
<path d="M76.6497 23.3103C76.6497 25.6909 74.7237 27.6207 72.3478 27.6207C69.9719 27.6207 68.0459 25.6909 68.0459 23.3103C68.0459 20.9298 69.9719 19 72.3478 19C74.7237 19 76.6497 20.9298 76.6497 23.3103Z" fill="#BAD9E7"/>
<path d="M106.763 27.6207C109.139 27.6207 111.065 25.6909 111.065 23.3103C111.065 20.9298 109.139 19 106.763 19C104.387 19 102.461 20.9298 102.461 23.3103C102.461 25.6909 104.387 27.6207 106.763 27.6207Z" fill="#BAD9E7"/>
<path d="M145.48 23.3103C145.48 25.6909 143.554 27.6207 141.178 27.6207C138.802 27.6207 136.876 25.6909 136.876 23.3103C136.876 20.9298 138.802 19 141.178 19C143.554 19 145.48 20.9298 145.48 23.3103Z" fill="#BAD9E7"/>
<path d="M175.593 27.6207C177.969 27.6207 179.895 25.6909 179.895 23.3103C179.895 20.9298 177.969 19 175.593 19C173.217 19 171.291 20.9298 171.291 23.3103C171.291 25.6909 173.217 27.6207 175.593 27.6207Z" fill="#BAD9E7"/>
<path d="M214.31 23.3103C214.31 25.6909 212.384 27.6207 210.008 27.6207C207.632 27.6207 205.706 25.6909 205.706 23.3103C205.706 20.9298 207.632 19 210.008 19C212.384 19 214.31 20.9298 214.31 23.3103Z" fill="#BAD9E7"/>
<path d="M244.423 27.6207C246.799 27.6207 248.725 25.6909 248.725 23.3103C248.725 20.9298 246.799 19 244.423 19C242.047 19 240.121 20.9298 240.121 23.3103C240.121 25.6909 242.047 27.6207 244.423 27.6207Z" fill="#BAD9E7"/>
<path d="M283.14 23.3103C283.14 25.6909 281.214 27.6207 278.838 27.6207C276.462 27.6207 274.536 25.6909 274.536 23.3103C274.536 20.9298 276.462 19 278.838 19C281.214 19 283.14 20.9298 283.14 23.3103Z" fill="#BAD9E7"/>
<path d="M313.253 27.6207C315.629 27.6207 317.555 25.6909 317.555 23.3103C317.555 20.9298 315.629 19 313.253 19C310.878 19 308.952 20.9298 308.952 23.3103C308.952 25.6909 310.878 27.6207 313.253 27.6207Z" fill="#BAD9E7"/>
<path d="M351.97 23.3103C351.97 25.6909 350.044 27.6207 347.669 27.6207C345.293 27.6207 343.367 25.6909 343.367 23.3103C343.367 20.9298 345.293 19 347.669 19C350.044 19 351.97 20.9298 351.97 23.3103Z" fill="#BAD9E7"/>
<path d="M382.084 27.6207C384.46 27.6207 386.386 25.6909 386.386 23.3103C386.386 20.9298 384.46 19 382.084 19C379.708 19 377.782 20.9298 377.782 23.3103C377.782 25.6909 379.708 27.6207 382.084 27.6207Z" fill="#BAD9E7"/>
<path d="M420.801 23.3103C420.801 25.6909 418.875 27.6207 416.499 27.6207C414.123 27.6207 412.197 25.6909 412.197 23.3103C412.197 20.9298 414.123 19 416.499 19C418.875 19 420.801 20.9298 420.801 23.3103Z" fill="#BAD9E7"/>
<path d="M450.914 27.6207C453.29 27.6207 455.216 25.6909 455.216 23.3103C455.216 20.9298 453.29 19 450.914 19C448.538 19 446.612 20.9298 446.612 23.3103C446.612 25.6909 448.538 27.6207 450.914 27.6207Z" fill="#BAD9E7"/>
<path d="M7.81947 57.7931C7.81947 60.1736 5.8935 62.1034 3.51759 62.1034C1.14167 62.1034 -0.784302 60.1736 -0.784302 57.7931C-0.784302 55.4126 1.14167 53.4828 3.51759 53.4828C5.8935 53.4828 7.81947 55.4126 7.81947 57.7931Z" fill="#BAD9E7"/>
<path d="M37.9327 62.1034C40.3086 62.1034 42.2346 60.1736 42.2346 57.7931C42.2346 55.4126 40.3086 53.4828 37.9327 53.4828C35.5568 53.4828 33.6308 55.4126 33.6308 57.7931C33.6308 60.1736 35.5568 62.1034 37.9327 62.1034Z" fill="#BAD9E7"/>
<path d="M76.6497 57.7931C76.6497 60.1736 74.7237 62.1034 72.3478 62.1034C69.9719 62.1034 68.0459 60.1736 68.0459 57.7931C68.0459 55.4126 69.9719 53.4828 72.3478 53.4828C74.7237 53.4828 76.6497 55.4126 76.6497 57.7931Z" fill="#BAD9E7"/>
<path d="M106.763 62.1034C109.139 62.1034 111.065 60.1736 111.065 57.7931C111.065 55.4126 109.139 53.4828 106.763 53.4828C104.387 53.4828 102.461 55.4126 102.461 57.7931C102.461 60.1736 104.387 62.1034 106.763 62.1034Z" fill="#BAD9E7"/>
<path d="M145.48 57.7931C145.48 60.1736 143.554 62.1034 141.178 62.1034C138.802 62.1034 136.876 60.1736 136.876 57.7931C136.876 55.4126 138.802 53.4828 141.178 53.4828C143.554 53.4828 145.48 55.4126 145.48 57.7931Z" fill="#BAD9E7"/>
<path d="M175.593 62.1034C177.969 62.1034 179.895 60.1736 179.895 57.7931C179.895 55.4126 177.969 53.4828 175.593 53.4828C173.217 53.4828 171.291 55.4126 171.291 57.7931C171.291 60.1736 173.217 62.1034 175.593 62.1034Z" fill="#BAD9E7"/>
<path d="M214.31 57.7931C214.31 60.1736 212.384 62.1034 210.008 62.1034C207.632 62.1034 205.706 60.1736 205.706 57.7931C205.706 55.4126 207.632 53.4828 210.008 53.4828C212.384 53.4828 214.31 55.4126 214.31 57.7931Z" fill="#BAD9E7"/>
<path d="M244.423 62.1034C246.799 62.1034 248.725 60.1736 248.725 57.7931C248.725 55.4126 246.799 53.4828 244.423 53.4828C242.047 53.4828 240.121 55.4126 240.121 57.7931C240.121 60.1736 242.047 62.1034 244.423 62.1034Z" fill="#BAD9E7"/>
<path d="M283.14 57.7931C283.14 60.1736 281.214 62.1034 278.838 62.1034C276.462 62.1034 274.536 60.1736 274.536 57.7931C274.536 55.4126 276.462 53.4828 278.838 53.4828C281.214 53.4828 283.14 55.4126 283.14 57.7931Z" fill="#BAD9E7"/>
<path d="M313.253 62.1034C315.629 62.1034 317.555 60.1736 317.555 57.7931C317.555 55.4126 315.629 53.4828 313.253 53.4828C310.878 53.4828 308.952 55.4126 308.952 57.7931C308.952 60.1736 310.878 62.1034 313.253 62.1034Z" fill="#BAD9E7"/>
<path d="M351.97 57.7931C351.97 60.1736 350.044 62.1034 347.669 62.1034C345.293 62.1034 343.367 60.1736 343.367 57.7931C343.367 55.4126 345.293 53.4828 347.669 53.4828C350.044 53.4828 351.97 55.4126 351.97 57.7931Z" fill="#BAD9E7"/>
<path d="M382.084 62.1034C384.46 62.1034 386.386 60.1736 386.386 57.7931C386.386 55.4126 384.46 53.4828 382.084 53.4828C379.708 53.4828 377.782 55.4126 377.782 57.7931C377.782 60.1736 379.708 62.1034 382.084 62.1034Z" fill="#BAD9E7"/>
<path d="M420.801 57.7931C420.801 60.1736 418.875 62.1034 416.499 62.1034C414.123 62.1034 412.197 60.1736 412.197 57.7931C412.197 55.4126 414.123 53.4828 416.499 53.4828C418.875 53.4828 420.801 55.4126 420.801 57.7931Z" fill="#BAD9E7"/>
<path d="M450.914 62.1034C453.29 62.1034 455.216 60.1736 455.216 57.7931C455.216 55.4126 453.29 53.4828 450.914 53.4828C448.538 53.4828 446.612 55.4126 446.612 57.7931C446.612 60.1736 448.538 62.1034 450.914 62.1034Z" fill="#BAD9E7"/>
<path d="M7.81947 92.2759C7.81947 94.6564 5.8935 96.5862 3.51759 96.5862C1.14167 96.5862 -0.784302 94.6564 -0.784302 92.2759C-0.784302 89.8953 1.14167 87.9655 3.51759 87.9655C5.8935 87.9655 7.81947 89.8953 7.81947 92.2759Z" fill="#BAD9E7"/>
<path d="M37.9327 96.5862C40.3086 96.5862 42.2346 94.6564 42.2346 92.2759C42.2346 89.8953 40.3086 87.9655 37.9327 87.9655C35.5568 87.9655 33.6308 89.8953 33.6308 92.2759C33.6308 94.6564 35.5568 96.5862 37.9327 96.5862Z" fill="#BAD9E7"/>
<path d="M76.6497 92.2759C76.6497 94.6564 74.7237 96.5862 72.3478 96.5862C69.9719 96.5862 68.0459 94.6564 68.0459 92.2759C68.0459 89.8953 69.9719 87.9655 72.3478 87.9655C74.7237 87.9655 76.6497 89.8953 76.6497 92.2759Z" fill="#BAD9E7"/>
<path d="M106.763 96.5862C109.139 96.5862 111.065 94.6564 111.065 92.2759C111.065 89.8953 109.139 87.9655 106.763 87.9655C104.387 87.9655 102.461 89.8953 102.461 92.2759C102.461 94.6564 104.387 96.5862 106.763 96.5862Z" fill="#BAD9E7"/>
<path d="M145.48 92.2759C145.48 94.6564 143.554 96.5862 141.178 96.5862C138.802 96.5862 136.876 94.6564 136.876 92.2759C136.876 89.8953 138.802 87.9655 141.178 87.9655C143.554 87.9655 145.48 89.8953 145.48 92.2759Z" fill="#BAD9E7"/>
<path d="M175.593 96.5862C177.969 96.5862 179.895 94.6564 179.895 92.2759C179.895 89.8953 177.969 87.9655 175.593 87.9655C173.217 87.9655 171.291 89.8953 171.291 92.2759C171.291 94.6564 173.217 96.5862 175.593 96.5862Z" fill="#BAD9E7"/>
<path d="M214.31 92.2759C214.31 94.6564 212.384 96.5862 210.008 96.5862C207.632 96.5862 205.706 94.6564 205.706 92.2759C205.706 89.8953 207.632 87.9655 210.008 87.9655C212.384 87.9655 214.31 89.8953 214.31 92.2759Z" fill="#BAD9E7"/>
<path d="M244.423 96.5862C246.799 96.5862 248.725 94.6564 248.725 92.2759C248.725 89.8953 246.799 87.9655 244.423 87.9655C242.047 87.9655 240.121 89.8953 240.121 92.2759C240.121 94.6564 242.047 96.5862 244.423 96.5862Z" fill="#BAD9E7"/>
<path d="M283.14 92.2759C283.14 94.6564 281.214 96.5862 278.838 96.5862C276.462 96.5862 274.536 94.6564 274.536 92.2759C274.536 89.8953 276.462 87.9655 278.838 87.9655C281.214 87.9655 283.14 89.8953 283.14 92.2759Z" fill="#BAD9E7"/>
<path d="M313.253 96.5862C315.629 96.5862 317.555 94.6564 317.555 92.2759C317.555 89.8953 315.629 87.9655 313.253 87.9655C310.878 87.9655 308.952 89.8953 308.952 92.2759C308.952 94.6564 310.878 96.5862 313.253 96.5862Z" fill="#BAD9E7"/>
<path d="M351.97 92.2759C351.97 94.6564 350.044 96.5862 347.669 96.5862C345.293 96.5862 343.367 94.6564 343.367 92.2759C343.367 89.8953 345.293 87.9655 347.669 87.9655C350.044 87.9655 351.97 89.8953 351.97 92.2759Z" fill="#BAD9E7"/>
<path d="M382.084 96.5862C384.46 96.5862 386.386 94.6564 386.386 92.2759C386.386 89.8953 384.46 87.9655 382.084 87.9655C379.708 87.9655 377.782 89.8953 377.782 92.2759C377.782 94.6564 379.708 96.5862 382.084 96.5862Z" fill="#BAD9E7"/>
<path d="M420.801 92.2759C420.801 94.6564 418.875 96.5862 416.499 96.5862C414.123 96.5862 412.197 94.6564 412.197 92.2759C412.197 89.8953 414.123 87.9655 416.499 87.9655C418.875 87.9655 420.801 89.8953 420.801 92.2759Z" fill="#BAD9E7"/>
<path d="M450.914 96.5862C453.29 96.5862 455.216 94.6564 455.216 92.2759C455.216 89.8953 453.29 87.9655 450.914 87.9655C448.538 87.9655 446.612 89.8953 446.612 92.2759C446.612 94.6564 448.538 96.5862 450.914 96.5862Z" fill="#BAD9E7"/>
<path d="M7.81947 126.759C7.81947 129.139 5.8935 131.069 3.51759 131.069C1.14167 131.069 -0.784302 129.139 -0.784302 126.759C-0.784302 124.378 1.14167 122.448 3.51759 122.448C5.8935 122.448 7.81947 124.378 7.81947 126.759Z" fill="#BAD9E7"/>
<path d="M37.9327 131.069C40.3086 131.069 42.2346 129.139 42.2346 126.759C42.2346 124.378 40.3086 122.448 37.9327 122.448C35.5568 122.448 33.6308 124.378 33.6308 126.759C33.6308 129.139 35.5568 131.069 37.9327 131.069Z" fill="#BAD9E7"/>
<path d="M76.6497 126.759C76.6497 129.139 74.7237 131.069 72.3478 131.069C69.9719 131.069 68.0459 129.139 68.0459 126.759C68.0459 124.378 69.9719 122.448 72.3478 122.448C74.7237 122.448 76.6497 124.378 76.6497 126.759Z" fill="#BAD9E7"/>
<path d="M106.763 131.069C109.139 131.069 111.065 129.139 111.065 126.759C111.065 124.378 109.139 122.448 106.763 122.448C104.387 122.448 102.461 124.378 102.461 126.759C102.461 129.139 104.387 131.069 106.763 131.069Z" fill="#BAD9E7"/>
<path d="M145.48 126.759C145.48 129.139 143.554 131.069 141.178 131.069C138.802 131.069 136.876 129.139 136.876 126.759C136.876 124.378 138.802 122.448 141.178 122.448C143.554 122.448 145.48 124.378 145.48 126.759Z" fill="#BAD9E7"/>
<path d="M175.593 131.069C177.969 131.069 179.895 129.139 179.895 126.759C179.895 124.378 177.969 122.448 175.593 122.448C173.217 122.448 171.291 124.378 171.291 126.759C171.291 129.139 173.217 131.069 175.593 131.069Z" fill="#BAD9E7"/>
<path d="M214.31 126.759C214.31 129.139 212.384 131.069 210.008 131.069C207.632 131.069 205.706 129.139 205.706 126.759C205.706 124.378 207.632 122.448 210.008 122.448C212.384 122.448 214.31 124.378 214.31 126.759Z" fill="#BAD9E7"/>
<path d="M244.423 131.069C246.799 131.069 248.725 129.139 248.725 126.759C248.725 124.378 246.799 122.448 244.423 122.448C242.047 122.448 240.121 124.378 240.121 126.759C240.121 129.139 242.047 131.069 244.423 131.069Z" fill="#BAD9E7"/>
<path d="M283.14 126.759C283.14 129.139 281.214 131.069 278.838 131.069C276.462 131.069 274.536 129.139 274.536 126.759C274.536 124.378 276.462 122.448 278.838 122.448C281.214 122.448 283.14 124.378 283.14 126.759Z" fill="#BAD9E7"/>
<path d="M313.253 131.069C315.629 131.069 317.555 129.139 317.555 126.759C317.555 124.378 315.629 122.448 313.253 122.448C310.878 122.448 308.952 124.378 308.952 126.759C308.952 129.139 310.878 131.069 313.253 131.069Z" fill="#BAD9E7"/>
<path d="M351.97 126.759C351.97 129.139 350.044 131.069 347.669 131.069C345.293 131.069 343.367 129.139 343.367 126.759C343.367 124.378 345.293 122.448 347.669 122.448C350.044 122.448 351.97 124.378 351.97 126.759Z" fill="#BAD9E7"/>
<path d="M382.084 131.069C384.46 131.069 386.386 129.139 386.386 126.759C386.386 124.378 384.46 122.448 382.084 122.448C379.708 122.448 377.782 124.378 377.782 126.759C377.782 129.139 379.708 131.069 382.084 131.069Z" fill="#BAD9E7"/>
<path d="M420.801 126.759C420.801 129.139 418.875 131.069 416.499 131.069C414.123 131.069 412.197 129.139 412.197 126.759C412.197 124.378 414.123 122.448 416.499 122.448C418.875 122.448 420.801 124.378 420.801 126.759Z" fill="#BAD9E7"/>
<path d="M450.914 131.069C453.29 131.069 455.216 129.139 455.216 126.759C455.216 124.378 453.29 122.448 450.914 122.448C448.538 122.448 446.612 124.378 446.612 126.759C446.612 129.139 448.538 131.069 450.914 131.069Z" fill="#BAD9E7"/>
<path d="M7.81947 161.241C7.81947 163.622 5.8935 165.552 3.51759 165.552C1.14167 165.552 -0.784302 163.622 -0.784302 161.241C-0.784302 158.861 1.14167 156.931 3.51759 156.931C5.8935 156.931 7.81947 158.861 7.81947 161.241Z" fill="#BAD9E7"/>
<path d="M37.9327 165.552C40.3086 165.552 42.2346 163.622 42.2346 161.241C42.2346 158.861 40.3086 156.931 37.9327 156.931C35.5568 156.931 33.6308 158.861 33.6308 161.241C33.6308 163.622 35.5568 165.552 37.9327 165.552Z" fill="#BAD9E7"/>
<path d="M76.6497 161.241C76.6497 163.622 74.7237 165.552 72.3478 165.552C69.9719 165.552 68.0459 163.622 68.0459 161.241C68.0459 158.861 69.9719 156.931 72.3478 156.931C74.7237 156.931 76.6497 158.861 76.6497 161.241Z" fill="#BAD9E7"/>
<path d="M106.763 165.552C109.139 165.552 111.065 163.622 111.065 161.241C111.065 158.861 109.139 156.931 106.763 156.931C104.387 156.931 102.461 158.861 102.461 161.241C102.461 163.622 104.387 165.552 106.763 165.552Z" fill="#BAD9E7"/>
<path d="M145.48 161.241C145.48 163.622 143.554 165.552 141.178 165.552C138.802 165.552 136.876 163.622 136.876 161.241C136.876 158.861 138.802 156.931 141.178 156.931C143.554 156.931 145.48 158.861 145.48 161.241Z" fill="#BAD9E7"/>
<path d="M175.593 165.552C177.969 165.552 179.895 163.622 179.895 161.241C179.895 158.861 177.969 156.931 175.593 156.931C173.217 156.931 171.291 158.861 171.291 161.241C171.291 163.622 173.217 165.552 175.593 165.552Z" fill="#BAD9E7"/>
<path d="M214.31 161.241C214.31 163.622 212.384 165.552 210.008 165.552C207.632 165.552 205.706 163.622 205.706 161.241C205.706 158.861 207.632 156.931 210.008 156.931C212.384 156.931 214.31 158.861 214.31 161.241Z" fill="#BAD9E7"/>
<path d="M244.423 165.552C246.799 165.552 248.725 163.622 248.725 161.241C248.725 158.861 246.799 156.931 244.423 156.931C242.047 156.931 240.121 158.861 240.121 161.241C240.121 163.622 242.047 165.552 244.423 165.552Z" fill="#BAD9E7"/>
<path d="M283.14 161.241C283.14 163.622 281.214 165.552 278.838 165.552C276.462 165.552 274.536 163.622 274.536 161.241C274.536 158.861 276.462 156.931 278.838 156.931C281.214 156.931 283.14 158.861 283.14 161.241Z" fill="#BAD9E7"/>
<path d="M313.253 165.552C315.629 165.552 317.555 163.622 317.555 161.241C317.555 158.861 315.629 156.931 313.253 156.931C310.878 156.931 308.952 158.861 308.952 161.241C308.952 163.622 310.878 165.552 313.253 165.552Z" fill="#BAD9E7"/>
<path d="M351.97 161.241C351.97 163.622 350.044 165.552 347.669 165.552C345.293 165.552 343.367 163.622 343.367 161.241C343.367 158.861 345.293 156.931 347.669 156.931C350.044 156.931 351.97 158.861 351.97 161.241Z" fill="#BAD9E7"/>
<path d="M382.084 165.552C384.46 165.552 386.386 163.622 386.386 161.241C386.386 158.861 384.46 156.931 382.084 156.931C379.708 156.931 377.782 158.861 377.782 161.241C377.782 163.622 379.708 165.552 382.084 165.552Z" fill="#BAD9E7"/>
<path d="M420.801 161.241C420.801 163.622 418.875 165.552 416.499 165.552C414.123 165.552 412.197 163.622 412.197 161.241C412.197 158.861 414.123 156.931 416.499 156.931C418.875 156.931 420.801 158.861 420.801 161.241Z" fill="#BAD9E7"/>
<path d="M450.914 165.552C453.29 165.552 455.216 163.622 455.216 161.241C455.216 158.861 453.29 156.931 450.914 156.931C448.538 156.931 446.612 158.861 446.612 161.241C446.612 163.622 448.538 165.552 450.914 165.552Z" fill="#BAD9E7"/>
<path d="M7.81947 195.724C7.81947 198.105 5.8935 200.034 3.51759 200.034C1.14167 200.034 -0.784302 198.105 -0.784302 195.724C-0.784302 193.344 1.14167 191.414 3.51759 191.414C5.8935 191.414 7.81947 193.344 7.81947 195.724Z" fill="#BAD9E7"/>
<path d="M37.9327 200.034C40.3086 200.034 42.2346 198.105 42.2346 195.724C42.2346 193.344 40.3086 191.414 37.9327 191.414C35.5568 191.414 33.6308 193.344 33.6308 195.724C33.6308 198.105 35.5568 200.034 37.9327 200.034Z" fill="#BAD9E7"/>
<path d="M76.6497 195.724C76.6497 198.105 74.7237 200.034 72.3478 200.034C69.9719 200.034 68.0459 198.105 68.0459 195.724C68.0459 193.344 69.9719 191.414 72.3478 191.414C74.7237 191.414 76.6497 193.344 76.6497 195.724Z" fill="#BAD9E7"/>
<path d="M106.763 200.034C109.139 200.034 111.065 198.105 111.065 195.724C111.065 193.344 109.139 191.414 106.763 191.414C104.387 191.414 102.461 193.344 102.461 195.724C102.461 198.105 104.387 200.034 106.763 200.034Z" fill="#BAD9E7"/>
<path d="M145.48 195.724C145.48 198.105 143.554 200.034 141.178 200.034C138.802 200.034 136.876 198.105 136.876 195.724C136.876 193.344 138.802 191.414 141.178 191.414C143.554 191.414 145.48 193.344 145.48 195.724Z" fill="#BAD9E7"/>
<path d="M175.593 200.034C177.969 200.034 179.895 198.105 179.895 195.724C179.895 193.344 177.969 191.414 175.593 191.414C173.217 191.414 171.291 193.344 171.291 195.724C171.291 198.105 173.217 200.034 175.593 200.034Z" fill="#BAD9E7"/>
<path d="M214.31 195.724C214.31 198.105 212.384 200.034 210.008 200.034C207.632 200.034 205.706 198.105 205.706 195.724C205.706 193.344 207.632 191.414 210.008 191.414C212.384 191.414 214.31 193.344 214.31 195.724Z" fill="#BAD9E7"/>
<path d="M244.423 200.034C246.799 200.034 248.725 198.105 248.725 195.724C248.725 193.344 246.799 191.414 244.423 191.414C242.047 191.414 240.121 193.344 240.121 195.724C240.121 198.105 242.047 200.034 244.423 200.034Z" fill="#BAD9E7"/>
<path d="M283.14 195.724C283.14 198.105 281.214 200.034 278.838 200.034C276.462 200.034 274.536 198.105 274.536 195.724C274.536 193.344 276.462 191.414 278.838 191.414C281.214 191.414 283.14 193.344 283.14 195.724Z" fill="#BAD9E7"/>
<path d="M313.253 200.034C315.629 200.034 317.555 198.105 317.555 195.724C317.555 193.344 315.629 191.414 313.253 191.414C310.878 191.414 308.952 193.344 308.952 195.724C308.952 198.105 310.878 200.034 313.253 200.034Z" fill="#BAD9E7"/>
<path d="M351.97 195.724C351.97 198.105 350.044 200.034 347.669 200.034C345.293 200.034 343.367 198.105 343.367 195.724C343.367 193.344 345.293 191.414 347.669 191.414C350.044 191.414 351.97 193.344 351.97 195.724Z" fill="#BAD9E7"/>
<path d="M382.084 200.034C384.46 200.034 386.386 198.105 386.386 195.724C386.386 193.344 384.46 191.414 382.084 191.414C379.708 191.414 377.782 193.344 377.782 195.724C377.782 198.105 379.708 200.034 382.084 200.034Z" fill="#BAD9E7"/>
<path d="M420.801 195.724C420.801 198.105 418.875 200.034 416.499 200.034C414.123 200.034 412.197 198.105 412.197 195.724C412.197 193.344 414.123 191.414 416.499 191.414C418.875 191.414 420.801 193.344 420.801 195.724Z" fill="#BAD9E7"/>
<path d="M450.914 200.034C453.29 200.034 455.216 198.105 455.216 195.724C455.216 193.344 453.29 191.414 450.914 191.414C448.538 191.414 446.612 193.344 446.612 195.724C446.612 198.105 448.538 200.034 450.914 200.034Z" fill="#BAD9E7"/>
<path d="M7.81947 230.207C7.81947 232.587 5.8935 234.517 3.51759 234.517C1.14167 234.517 -0.784302 232.587 -0.784302 230.207C-0.784302 227.826 1.14167 225.897 3.51759 225.897C5.8935 225.897 7.81947 227.826 7.81947 230.207Z" fill="#BAD9E7"/>
<path d="M37.9327 234.517C40.3086 234.517 42.2346 232.587 42.2346 230.207C42.2346 227.826 40.3086 225.897 37.9327 225.897C35.5568 225.897 33.6308 227.826 33.6308 230.207C33.6308 232.587 35.5568 234.517 37.9327 234.517Z" fill="#BAD9E7"/>
<path d="M76.6497 230.207C76.6497 232.587 74.7237 234.517 72.3478 234.517C69.9719 234.517 68.0459 232.587 68.0459 230.207C68.0459 227.826 69.9719 225.897 72.3478 225.897C74.7237 225.897 76.6497 227.826 76.6497 230.207Z" fill="#BAD9E7"/>
<path d="M106.763 234.517C109.139 234.517 111.065 232.587 111.065 230.207C111.065 227.826 109.139 225.897 106.763 225.897C104.387 225.897 102.461 227.826 102.461 230.207C102.461 232.587 104.387 234.517 106.763 234.517Z" fill="#BAD9E7"/>
<path d="M145.48 230.207C145.48 232.587 143.554 234.517 141.178 234.517C138.802 234.517 136.876 232.587 136.876 230.207C136.876 227.826 138.802 225.897 141.178 225.897C143.554 225.897 145.48 227.826 145.48 230.207Z" fill="#BAD9E7"/>
<path d="M175.593 234.517C177.969 234.517 179.895 232.587 179.895 230.207C179.895 227.826 177.969 225.897 175.593 225.897C173.217 225.897 171.291 227.826 171.291 230.207C171.291 232.587 173.217 234.517 175.593 234.517Z" fill="#BAD9E7"/>
<path d="M214.31 230.207C214.31 232.587 212.384 234.517 210.008 234.517C207.632 234.517 205.706 232.587 205.706 230.207C205.706 227.826 207.632 225.897 210.008 225.897C212.384 225.897 214.31 227.826 214.31 230.207Z" fill="#BAD9E7"/>
<path d="M244.423 234.517C246.799 234.517 248.725 232.587 248.725 230.207C248.725 227.826 246.799 225.897 244.423 225.897C242.047 225.897 240.121 227.826 240.121 230.207C240.121 232.587 242.047 234.517 244.423 234.517Z" fill="#BAD9E7"/>
<path d="M283.14 230.207C283.14 232.587 281.214 234.517 278.838 234.517C276.462 234.517 274.536 232.587 274.536 230.207C274.536 227.826 276.462 225.897 278.838 225.897C281.214 225.897 283.14 227.826 283.14 230.207Z" fill="#BAD9E7"/>
<path d="M313.253 234.517C315.629 234.517 317.555 232.587 317.555 230.207C317.555 227.826 315.629 225.897 313.253 225.897C310.878 225.897 308.952 227.826 308.952 230.207C308.952 232.587 310.878 234.517 313.253 234.517Z" fill="#BAD9E7"/>
<path d="M351.97 230.207C351.97 232.587 350.044 234.517 347.669 234.517C345.293 234.517 343.367 232.587 343.367 230.207C343.367 227.826 345.293 225.897 347.669 225.897C350.044 225.897 351.97 227.826 351.97 230.207Z" fill="#BAD9E7"/>
<path d="M382.084 234.517C384.46 234.517 386.386 232.587 386.386 230.207C386.386 227.826 384.46 225.897 382.084 225.897C379.708 225.897 377.782 227.826 377.782 230.207C377.782 232.587 379.708 234.517 382.084 234.517Z" fill="#BAD9E7"/>
<path d="M420.801 230.207C420.801 232.587 418.875 234.517 416.499 234.517C414.123 234.517 412.197 232.587 412.197 230.207C412.197 227.826 414.123 225.897 416.499 225.897C418.875 225.897 420.801 227.826 420.801 230.207Z" fill="#BAD9E7"/>
<path d="M450.914 234.517C453.29 234.517 455.216 232.587 455.216 230.207C455.216 227.826 453.29 225.897 450.914 225.897C448.538 225.897 446.612 227.826 446.612 230.207C446.612 232.587 448.538 234.517 450.914 234.517Z" fill="#BAD9E7"/>
<path d="M7.81947 264.69C7.81947 267.07 5.8935 269 3.51759 269C1.14167 269 -0.784302 267.07 -0.784302 264.69C-0.784302 262.309 1.14167 260.379 3.51759 260.379C5.8935 260.379 7.81947 262.309 7.81947 264.69Z" fill="#BAD9E7"/>
<path d="M37.9327 269C40.3086 269 42.2346 267.07 42.2346 264.69C42.2346 262.309 40.3086 260.379 37.9327 260.379C35.5568 260.379 33.6308 262.309 33.6308 264.69C33.6308 267.07 35.5568 269 37.9327 269Z" fill="#BAD9E7"/>
<path d="M76.6497 264.69C76.6497 267.07 74.7237 269 72.3478 269C69.9719 269 68.0459 267.07 68.0459 264.69C68.0459 262.309 69.9719 260.379 72.3478 260.379C74.7237 260.379 76.6497 262.309 76.6497 264.69Z" fill="#BAD9E7"/>
<path d="M106.763 269C109.139 269 111.065 267.07 111.065 264.69C111.065 262.309 109.139 260.379 106.763 260.379C104.387 260.379 102.461 262.309 102.461 264.69C102.461 267.07 104.387 269 106.763 269Z" fill="#BAD9E7"/>
<path d="M145.48 264.69C145.48 267.07 143.554 269 141.178 269C138.802 269 136.876 267.07 136.876 264.69C136.876 262.309 138.802 260.379 141.178 260.379C143.554 260.379 145.48 262.309 145.48 264.69Z" fill="#BAD9E7"/>
<path d="M175.593 269C177.969 269 179.895 267.07 179.895 264.69C179.895 262.309 177.969 260.379 175.593 260.379C173.217 260.379 171.291 262.309 171.291 264.69C171.291 267.07 173.217 269 175.593 269Z" fill="#BAD9E7"/>
<path d="M214.31 264.69C214.31 267.07 212.384 269 210.008 269C207.632 269 205.706 267.07 205.706 264.69C205.706 262.309 207.632 260.379 210.008 260.379C212.384 260.379 214.31 262.309 214.31 264.69Z" fill="#BAD9E7"/>
<path d="M244.423 269C246.799 269 248.725 267.07 248.725 264.69C248.725 262.309 246.799 260.379 244.423 260.379C242.047 260.379 240.121 262.309 240.121 264.69C240.121 267.07 242.047 269 244.423 269Z" fill="#BAD9E7"/>
<path d="M283.14 264.69C283.14 267.07 281.214 269 278.838 269C276.462 269 274.536 267.07 274.536 264.69C274.536 262.309 276.462 260.379 278.838 260.379C281.214 260.379 283.14 262.309 283.14 264.69Z" fill="#BAD9E7"/>
<path d="M313.253 269C315.629 269 317.555 267.07 317.555 264.69C317.555 262.309 315.629 260.379 313.253 260.379C310.878 260.379 308.952 262.309 308.952 264.69C308.952 267.07 310.878 269 313.253 269Z" fill="#BAD9E7"/>
<path d="M351.97 264.69C351.97 267.07 350.044 269 347.669 269C345.293 269 343.367 267.07 343.367 264.69C343.367 262.309 345.293 260.379 347.669 260.379C350.044 260.379 351.97 262.309 351.97 264.69Z" fill="#BAD9E7"/>
<path d="M382.084 269C384.46 269 386.386 267.07 386.386 264.69C386.386 262.309 384.46 260.379 382.084 260.379C379.708 260.379 377.782 262.309 377.782 264.69C377.782 267.07 379.708 269 382.084 269Z" fill="#BAD9E7"/>
<path d="M420.801 264.69C420.801 267.07 418.875 269 416.499 269C414.123 269 412.197 267.07 412.197 264.69C412.197 262.309 414.123 260.379 416.499 260.379C418.875 260.379 420.801 262.309 420.801 264.69Z" fill="#BAD9E7"/>
<path d="M450.914 269C453.29 269 455.216 267.07 455.216 264.69C455.216 262.309 453.29 260.379 450.914 260.379C448.538 260.379 446.612 262.309 446.612 264.69C446.612 267.07 448.538 269 450.914 269Z" fill="#BAD9E7"/>
</g>
<path fill-rule="evenodd" clip-rule="evenodd" d="M469.401 25.3893C469.401 25.3893 614.627 42.0155 602.595 184.856C593.869 288.588 656.654 326.529 675.19 384.641C695.249 447.315 654.068 611.81 487.325 556.735C320.583 501.659 312.828 595.732 224.735 636.694C136.642 677.657 -124.408 327.974 210.538 136.027C315.941 75.5494 321.935 23.2564 469.401 25.3893Z" fill="url(#paint0_linear)"/>
</g>
<defs>
<linearGradient id="paint0_linear" x1="513.456" y1="37.7013" x2="248.652" y2="661.85" gradientUnits="userSpaceOnUse">
<stop stop-color="#BAD9E7" stop-opacity="0.44"/>
<stop offset="1" stop-color="white"/>
</linearGradient>
<clipPath id="clip0">
<rect width="682" height="646" fill="white"/>
</clipPath>
</defs>
</svg>
