<svg width="541" height="468" viewBox="0 0 541 468" fill="none" xmlns="http://www.w3.org/2000/svg">
<path fill-rule="evenodd" clip-rule="evenodd" d="M392.554 0.0451676C392.554 0.0451676 494.966 11.7959 486.492 112.655C480.347 185.899 524.625 212.693 537.7 253.727C551.85 297.983 522.822 414.13 405.234 375.228C287.646 336.327 282.185 402.751 220.067 431.667C157.948 460.584 -26.1658 213.654 210.017 78.1462C284.341 35.4514 288.564 -1.47207 392.554 0.0451676Z" fill="url(#paint0_linear)"/>
<g opacity="0.5">
<path d="M2.54717 325.103C3.95396 325.103 5.09434 323.961 5.09434 322.552C5.09434 321.142 3.95396 320 2.54717 320C1.14038 320 0 321.142 0 322.552C0 323.961 1.14038 325.103 2.54717 325.103Z" fill="#BAD9E7"/>
<path d="M22.9245 325.103C24.3313 325.103 25.4717 323.961 25.4717 322.552C25.4717 321.142 24.3313 320 22.9245 320C21.5177 320 20.3774 321.142 20.3774 322.552C20.3774 323.961 21.5177 325.103 22.9245 325.103Z" fill="#BAD9E7"/>
<path d="M45.8491 322.552C45.8491 323.961 44.7087 325.103 43.3019 325.103C41.8951 325.103 40.7547 323.961 40.7547 322.552C40.7547 321.142 41.8951 320 43.3019 320C44.7087 320 45.8491 321.142 45.8491 322.552Z" fill="#BAD9E7"/>
<path d="M63.6792 325.103C65.086 325.103 66.2264 323.961 66.2264 322.552C66.2264 321.142 65.086 320 63.6792 320C62.2725 320 61.1321 321.142 61.1321 322.552C61.1321 323.961 62.2725 325.103 63.6792 325.103Z" fill="#BAD9E7"/>
<path d="M86.6038 322.552C86.6038 323.961 85.4634 325.103 84.0566 325.103C82.6498 325.103 81.5094 323.961 81.5094 322.552C81.5094 321.142 82.6498 320 84.0566 320C85.4634 320 86.6038 321.142 86.6038 322.552Z" fill="#BAD9E7"/>
<path d="M104.434 325.103C105.841 325.103 106.981 323.961 106.981 322.552C106.981 321.142 105.841 320 104.434 320C103.027 320 101.887 321.142 101.887 322.552C101.887 323.961 103.027 325.103 104.434 325.103Z" fill="#BAD9E7"/>
<path d="M127.358 322.552C127.358 323.961 126.218 325.103 124.811 325.103C123.405 325.103 122.264 323.961 122.264 322.552C122.264 321.142 123.405 320 124.811 320C126.218 320 127.358 321.142 127.358 322.552Z" fill="#BAD9E7"/>
<path d="M145.189 325.103C146.595 325.103 147.736 323.961 147.736 322.552C147.736 321.142 146.595 320 145.189 320C143.782 320 142.642 321.142 142.642 322.552C142.642 323.961 143.782 325.103 145.189 325.103Z" fill="#BAD9E7"/>
<path d="M168.113 322.552C168.113 323.961 166.973 325.103 165.566 325.103C164.159 325.103 163.019 323.961 163.019 322.552C163.019 321.142 164.159 320 165.566 320C166.973 320 168.113 321.142 168.113 322.552Z" fill="#BAD9E7"/>
<path d="M185.943 325.103C187.35 325.103 188.491 323.961 188.491 322.552C188.491 321.142 187.35 320 185.943 320C184.537 320 183.396 321.142 183.396 322.552C183.396 323.961 184.537 325.103 185.943 325.103Z" fill="#BAD9E7"/>
<path d="M208.868 322.552C208.868 323.961 207.728 325.103 206.321 325.103C204.914 325.103 203.774 323.961 203.774 322.552C203.774 321.142 204.914 320 206.321 320C207.728 320 208.868 321.142 208.868 322.552Z" fill="#BAD9E7"/>
<path d="M226.698 325.103C228.105 325.103 229.245 323.961 229.245 322.552C229.245 321.142 228.105 320 226.698 320C225.291 320 224.151 321.142 224.151 322.552C224.151 323.961 225.291 325.103 226.698 325.103Z" fill="#BAD9E7"/>
<path d="M249.623 322.552C249.623 323.961 248.482 325.103 247.075 325.103C245.669 325.103 244.528 323.961 244.528 322.552C244.528 321.142 245.669 320 247.075 320C248.482 320 249.623 321.142 249.623 322.552Z" fill="#BAD9E7"/>
<path d="M267.453 325.103C268.86 325.103 270 323.961 270 322.552C270 321.142 268.86 320 267.453 320C266.046 320 264.906 321.142 264.906 322.552C264.906 323.961 266.046 325.103 267.453 325.103Z" fill="#BAD9E7"/>
<path d="M5.09434 342.966C5.09434 344.375 3.95396 345.517 2.54717 345.517C1.14038 345.517 0 344.375 0 342.966C0 341.556 1.14038 340.414 2.54717 340.414C3.95396 340.414 5.09434 341.556 5.09434 342.966Z" fill="#BAD9E7"/>
<path d="M22.9245 345.517C24.3313 345.517 25.4717 344.375 25.4717 342.966C25.4717 341.556 24.3313 340.414 22.9245 340.414C21.5177 340.414 20.3774 341.556 20.3774 342.966C20.3774 344.375 21.5177 345.517 22.9245 345.517Z" fill="#BAD9E7"/>
<path d="M45.8491 342.966C45.8491 344.375 44.7087 345.517 43.3019 345.517C41.8951 345.517 40.7547 344.375 40.7547 342.966C40.7547 341.556 41.8951 340.414 43.3019 340.414C44.7087 340.414 45.8491 341.556 45.8491 342.966Z" fill="#BAD9E7"/>
<path d="M63.6792 345.517C65.086 345.517 66.2264 344.375 66.2264 342.966C66.2264 341.556 65.086 340.414 63.6792 340.414C62.2725 340.414 61.1321 341.556 61.1321 342.966C61.1321 344.375 62.2725 345.517 63.6792 345.517Z" fill="#BAD9E7"/>
<path d="M86.6038 342.966C86.6038 344.375 85.4634 345.517 84.0566 345.517C82.6498 345.517 81.5094 344.375 81.5094 342.966C81.5094 341.556 82.6498 340.414 84.0566 340.414C85.4634 340.414 86.6038 341.556 86.6038 342.966Z" fill="#BAD9E7"/>
<path d="M104.434 345.517C105.841 345.517 106.981 344.375 106.981 342.966C106.981 341.556 105.841 340.414 104.434 340.414C103.027 340.414 101.887 341.556 101.887 342.966C101.887 344.375 103.027 345.517 104.434 345.517Z" fill="#BAD9E7"/>
<path d="M127.358 342.966C127.358 344.375 126.218 345.517 124.811 345.517C123.405 345.517 122.264 344.375 122.264 342.966C122.264 341.556 123.405 340.414 124.811 340.414C126.218 340.414 127.358 341.556 127.358 342.966Z" fill="#BAD9E7"/>
<path d="M145.189 345.517C146.595 345.517 147.736 344.375 147.736 342.966C147.736 341.556 146.595 340.414 145.189 340.414C143.782 340.414 142.642 341.556 142.642 342.966C142.642 344.375 143.782 345.517 145.189 345.517Z" fill="#BAD9E7"/>
<path d="M168.113 342.966C168.113 344.375 166.973 345.517 165.566 345.517C164.159 345.517 163.019 344.375 163.019 342.966C163.019 341.556 164.159 340.414 165.566 340.414C166.973 340.414 168.113 341.556 168.113 342.966Z" fill="#BAD9E7"/>
<path d="M185.943 345.517C187.35 345.517 188.491 344.375 188.491 342.966C188.491 341.556 187.35 340.414 185.943 340.414C184.537 340.414 183.396 341.556 183.396 342.966C183.396 344.375 184.537 345.517 185.943 345.517Z" fill="#BAD9E7"/>
<path d="M208.868 342.966C208.868 344.375 207.728 345.517 206.321 345.517C204.914 345.517 203.774 344.375 203.774 342.966C203.774 341.556 204.914 340.414 206.321 340.414C207.728 340.414 208.868 341.556 208.868 342.966Z" fill="#BAD9E7"/>
<path d="M226.698 345.517C228.105 345.517 229.245 344.375 229.245 342.966C229.245 341.556 228.105 340.414 226.698 340.414C225.291 340.414 224.151 341.556 224.151 342.966C224.151 344.375 225.291 345.517 226.698 345.517Z" fill="#BAD9E7"/>
<path d="M249.623 342.966C249.623 344.375 248.482 345.517 247.075 345.517C245.669 345.517 244.528 344.375 244.528 342.966C244.528 341.556 245.669 340.414 247.075 340.414C248.482 340.414 249.623 341.556 249.623 342.966Z" fill="#BAD9E7"/>
<path d="M267.453 345.517C268.86 345.517 270 344.375 270 342.966C270 341.556 268.86 340.414 267.453 340.414C266.046 340.414 264.906 341.556 264.906 342.966C264.906 344.375 266.046 345.517 267.453 345.517Z" fill="#BAD9E7"/>
<path d="M5.09434 363.379C5.09434 364.789 3.95396 365.931 2.54717 365.931C1.14038 365.931 0 364.789 0 363.379C0 361.97 1.14038 360.828 2.54717 360.828C3.95396 360.828 5.09434 361.97 5.09434 363.379Z" fill="#BAD9E7"/>
<path d="M22.9245 365.931C24.3313 365.931 25.4717 364.789 25.4717 363.379C25.4717 361.97 24.3313 360.828 22.9245 360.828C21.5177 360.828 20.3774 361.97 20.3774 363.379C20.3774 364.789 21.5177 365.931 22.9245 365.931Z" fill="#BAD9E7"/>
<path d="M45.8491 363.379C45.8491 364.789 44.7087 365.931 43.3019 365.931C41.8951 365.931 40.7547 364.789 40.7547 363.379C40.7547 361.97 41.8951 360.828 43.3019 360.828C44.7087 360.828 45.8491 361.97 45.8491 363.379Z" fill="#BAD9E7"/>
<path d="M63.6792 365.931C65.086 365.931 66.2264 364.789 66.2264 363.379C66.2264 361.97 65.086 360.828 63.6792 360.828C62.2725 360.828 61.1321 361.97 61.1321 363.379C61.1321 364.789 62.2725 365.931 63.6792 365.931Z" fill="#BAD9E7"/>
<path d="M86.6038 363.379C86.6038 364.789 85.4634 365.931 84.0566 365.931C82.6498 365.931 81.5094 364.789 81.5094 363.379C81.5094 361.97 82.6498 360.828 84.0566 360.828C85.4634 360.828 86.6038 361.97 86.6038 363.379Z" fill="#BAD9E7"/>
<path d="M104.434 365.931C105.841 365.931 106.981 364.789 106.981 363.379C106.981 361.97 105.841 360.828 104.434 360.828C103.027 360.828 101.887 361.97 101.887 363.379C101.887 364.789 103.027 365.931 104.434 365.931Z" fill="#BAD9E7"/>
<path d="M127.358 363.379C127.358 364.789 126.218 365.931 124.811 365.931C123.405 365.931 122.264 364.789 122.264 363.379C122.264 361.97 123.405 360.828 124.811 360.828C126.218 360.828 127.358 361.97 127.358 363.379Z" fill="#BAD9E7"/>
<path d="M145.189 365.931C146.595 365.931 147.736 364.789 147.736 363.379C147.736 361.97 146.595 360.828 145.189 360.828C143.782 360.828 142.642 361.97 142.642 363.379C142.642 364.789 143.782 365.931 145.189 365.931Z" fill="#BAD9E7"/>
<path d="M168.113 363.379C168.113 364.789 166.973 365.931 165.566 365.931C164.159 365.931 163.019 364.789 163.019 363.379C163.019 361.97 164.159 360.828 165.566 360.828C166.973 360.828 168.113 361.97 168.113 363.379Z" fill="#BAD9E7"/>
<path d="M185.943 365.931C187.35 365.931 188.491 364.789 188.491 363.379C188.491 361.97 187.35 360.828 185.943 360.828C184.537 360.828 183.396 361.97 183.396 363.379C183.396 364.789 184.537 365.931 185.943 365.931Z" fill="#BAD9E7"/>
<path d="M208.868 363.379C208.868 364.789 207.728 365.931 206.321 365.931C204.914 365.931 203.774 364.789 203.774 363.379C203.774 361.97 204.914 360.828 206.321 360.828C207.728 360.828 208.868 361.97 208.868 363.379Z" fill="#BAD9E7"/>
<path d="M226.698 365.931C228.105 365.931 229.245 364.789 229.245 363.379C229.245 361.97 228.105 360.828 226.698 360.828C225.291 360.828 224.151 361.97 224.151 363.379C224.151 364.789 225.291 365.931 226.698 365.931Z" fill="#BAD9E7"/>
<path d="M249.623 363.379C249.623 364.789 248.482 365.931 247.075 365.931C245.669 365.931 244.528 364.789 244.528 363.379C244.528 361.97 245.669 360.828 247.075 360.828C248.482 360.828 249.623 361.97 249.623 363.379Z" fill="#BAD9E7"/>
<path d="M267.453 365.931C268.86 365.931 270 364.789 270 363.379C270 361.97 268.86 360.828 267.453 360.828C266.046 360.828 264.906 361.97 264.906 363.379C264.906 364.789 266.046 365.931 267.453 365.931Z" fill="#BAD9E7"/>
<path d="M5.09434 383.793C5.09434 385.202 3.95396 386.345 2.54717 386.345C1.14038 386.345 0 385.202 0 383.793C0 382.384 1.14038 381.241 2.54717 381.241C3.95396 381.241 5.09434 382.384 5.09434 383.793Z" fill="#BAD9E7"/>
<path d="M22.9245 386.345C24.3313 386.345 25.4717 385.202 25.4717 383.793C25.4717 382.384 24.3313 381.241 22.9245 381.241C21.5177 381.241 20.3774 382.384 20.3774 383.793C20.3774 385.202 21.5177 386.345 22.9245 386.345Z" fill="#BAD9E7"/>
<path d="M45.8491 383.793C45.8491 385.202 44.7087 386.345 43.3019 386.345C41.8951 386.345 40.7547 385.202 40.7547 383.793C40.7547 382.384 41.8951 381.241 43.3019 381.241C44.7087 381.241 45.8491 382.384 45.8491 383.793Z" fill="#BAD9E7"/>
<path d="M63.6792 386.345C65.086 386.345 66.2264 385.202 66.2264 383.793C66.2264 382.384 65.086 381.241 63.6792 381.241C62.2725 381.241 61.1321 382.384 61.1321 383.793C61.1321 385.202 62.2725 386.345 63.6792 386.345Z" fill="#BAD9E7"/>
<path d="M86.6038 383.793C86.6038 385.202 85.4634 386.345 84.0566 386.345C82.6498 386.345 81.5094 385.202 81.5094 383.793C81.5094 382.384 82.6498 381.241 84.0566 381.241C85.4634 381.241 86.6038 382.384 86.6038 383.793Z" fill="#BAD9E7"/>
<path d="M104.434 386.345C105.841 386.345 106.981 385.202 106.981 383.793C106.981 382.384 105.841 381.241 104.434 381.241C103.027 381.241 101.887 382.384 101.887 383.793C101.887 385.202 103.027 386.345 104.434 386.345Z" fill="#BAD9E7"/>
<path d="M127.358 383.793C127.358 385.202 126.218 386.345 124.811 386.345C123.405 386.345 122.264 385.202 122.264 383.793C122.264 382.384 123.405 381.241 124.811 381.241C126.218 381.241 127.358 382.384 127.358 383.793Z" fill="#BAD9E7"/>
<path d="M145.189 386.345C146.595 386.345 147.736 385.202 147.736 383.793C147.736 382.384 146.595 381.241 145.189 381.241C143.782 381.241 142.642 382.384 142.642 383.793C142.642 385.202 143.782 386.345 145.189 386.345Z" fill="#BAD9E7"/>
<path d="M168.113 383.793C168.113 385.202 166.973 386.345 165.566 386.345C164.159 386.345 163.019 385.202 163.019 383.793C163.019 382.384 164.159 381.241 165.566 381.241C166.973 381.241 168.113 382.384 168.113 383.793Z" fill="#BAD9E7"/>
<path d="M185.943 386.345C187.35 386.345 188.491 385.202 188.491 383.793C188.491 382.384 187.35 381.241 185.943 381.241C184.537 381.241 183.396 382.384 183.396 383.793C183.396 385.202 184.537 386.345 185.943 386.345Z" fill="#BAD9E7"/>
<path d="M208.868 383.793C208.868 385.202 207.728 386.345 206.321 386.345C204.914 386.345 203.774 385.202 203.774 383.793C203.774 382.384 204.914 381.241 206.321 381.241C207.728 381.241 208.868 382.384 208.868 383.793Z" fill="#BAD9E7"/>
<path d="M226.698 386.345C228.105 386.345 229.245 385.202 229.245 383.793C229.245 382.384 228.105 381.241 226.698 381.241C225.291 381.241 224.151 382.384 224.151 383.793C224.151 385.202 225.291 386.345 226.698 386.345Z" fill="#BAD9E7"/>
<path d="M249.623 383.793C249.623 385.202 248.482 386.345 247.075 386.345C245.669 386.345 244.528 385.202 244.528 383.793C244.528 382.384 245.669 381.241 247.075 381.241C248.482 381.241 249.623 382.384 249.623 383.793Z" fill="#BAD9E7"/>
<path d="M267.453 386.345C268.86 386.345 270 385.202 270 383.793C270 382.384 268.86 381.241 267.453 381.241C266.046 381.241 264.906 382.384 264.906 383.793C264.906 385.202 266.046 386.345 267.453 386.345Z" fill="#BAD9E7"/>
<path d="M5.09434 404.207C5.09434 405.616 3.95396 406.759 2.54717 406.759C1.14038 406.759 0 405.616 0 404.207C0 402.798 1.14038 401.655 2.54717 401.655C3.95396 401.655 5.09434 402.798 5.09434 404.207Z" fill="#BAD9E7"/>
<path d="M22.9245 406.759C24.3313 406.759 25.4717 405.616 25.4717 404.207C25.4717 402.798 24.3313 401.655 22.9245 401.655C21.5177 401.655 20.3774 402.798 20.3774 404.207C20.3774 405.616 21.5177 406.759 22.9245 406.759Z" fill="#BAD9E7"/>
<path d="M45.8491 404.207C45.8491 405.616 44.7087 406.759 43.3019 406.759C41.8951 406.759 40.7547 405.616 40.7547 404.207C40.7547 402.798 41.8951 401.655 43.3019 401.655C44.7087 401.655 45.8491 402.798 45.8491 404.207Z" fill="#BAD9E7"/>
<path d="M63.6792 406.759C65.086 406.759 66.2264 405.616 66.2264 404.207C66.2264 402.798 65.086 401.655 63.6792 401.655C62.2725 401.655 61.1321 402.798 61.1321 404.207C61.1321 405.616 62.2725 406.759 63.6792 406.759Z" fill="#BAD9E7"/>
<path d="M86.6038 404.207C86.6038 405.616 85.4634 406.759 84.0566 406.759C82.6498 406.759 81.5094 405.616 81.5094 404.207C81.5094 402.798 82.6498 401.655 84.0566 401.655C85.4634 401.655 86.6038 402.798 86.6038 404.207Z" fill="#BAD9E7"/>
<path d="M104.434 406.759C105.841 406.759 106.981 405.616 106.981 404.207C106.981 402.798 105.841 401.655 104.434 401.655C103.027 401.655 101.887 402.798 101.887 404.207C101.887 405.616 103.027 406.759 104.434 406.759Z" fill="#BAD9E7"/>
<path d="M127.358 404.207C127.358 405.616 126.218 406.759 124.811 406.759C123.405 406.759 122.264 405.616 122.264 404.207C122.264 402.798 123.405 401.655 124.811 401.655C126.218 401.655 127.358 402.798 127.358 404.207Z" fill="#BAD9E7"/>
<path d="M145.189 406.759C146.595 406.759 147.736 405.616 147.736 404.207C147.736 402.798 146.595 401.655 145.189 401.655C143.782 401.655 142.642 402.798 142.642 404.207C142.642 405.616 143.782 406.759 145.189 406.759Z" fill="#BAD9E7"/>
<path d="M168.113 404.207C168.113 405.616 166.973 406.759 165.566 406.759C164.159 406.759 163.019 405.616 163.019 404.207C163.019 402.798 164.159 401.655 165.566 401.655C166.973 401.655 168.113 402.798 168.113 404.207Z" fill="#BAD9E7"/>
<path d="M185.943 406.759C187.35 406.759 188.491 405.616 188.491 404.207C188.491 402.798 187.35 401.655 185.943 401.655C184.537 401.655 183.396 402.798 183.396 404.207C183.396 405.616 184.537 406.759 185.943 406.759Z" fill="#BAD9E7"/>
<path d="M208.868 404.207C208.868 405.616 207.728 406.759 206.321 406.759C204.914 406.759 203.774 405.616 203.774 404.207C203.774 402.798 204.914 401.655 206.321 401.655C207.728 401.655 208.868 402.798 208.868 404.207Z" fill="#BAD9E7"/>
<path d="M226.698 406.759C228.105 406.759 229.245 405.616 229.245 404.207C229.245 402.798 228.105 401.655 226.698 401.655C225.291 401.655 224.151 402.798 224.151 404.207C224.151 405.616 225.291 406.759 226.698 406.759Z" fill="#BAD9E7"/>
<path d="M249.623 404.207C249.623 405.616 248.482 406.759 247.075 406.759C245.669 406.759 244.528 405.616 244.528 404.207C244.528 402.798 245.669 401.655 247.075 401.655C248.482 401.655 249.623 402.798 249.623 404.207Z" fill="#BAD9E7"/>
<path d="M267.453 406.759C268.86 406.759 270 405.616 270 404.207C270 402.798 268.86 401.655 267.453 401.655C266.046 401.655 264.906 402.798 264.906 404.207C264.906 405.616 266.046 406.759 267.453 406.759Z" fill="#BAD9E7"/>
<path d="M5.09434 424.621C5.09434 426.03 3.95396 427.172 2.54717 427.172C1.14038 427.172 0 426.03 0 424.621C0 423.211 1.14038 422.069 2.54717 422.069C3.95396 422.069 5.09434 423.211 5.09434 424.621Z" fill="#BAD9E7"/>
<path d="M22.9245 427.172C24.3313 427.172 25.4717 426.03 25.4717 424.621C25.4717 423.211 24.3313 422.069 22.9245 422.069C21.5177 422.069 20.3774 423.211 20.3774 424.621C20.3774 426.03 21.5177 427.172 22.9245 427.172Z" fill="#BAD9E7"/>
<path d="M45.8491 424.621C45.8491 426.03 44.7087 427.172 43.3019 427.172C41.8951 427.172 40.7547 426.03 40.7547 424.621C40.7547 423.211 41.8951 422.069 43.3019 422.069C44.7087 422.069 45.8491 423.211 45.8491 424.621Z" fill="#BAD9E7"/>
<path d="M63.6792 427.172C65.086 427.172 66.2264 426.03 66.2264 424.621C66.2264 423.211 65.086 422.069 63.6792 422.069C62.2725 422.069 61.1321 423.211 61.1321 424.621C61.1321 426.03 62.2725 427.172 63.6792 427.172Z" fill="#BAD9E7"/>
<path d="M86.6038 424.621C86.6038 426.03 85.4634 427.172 84.0566 427.172C82.6498 427.172 81.5094 426.03 81.5094 424.621C81.5094 423.211 82.6498 422.069 84.0566 422.069C85.4634 422.069 86.6038 423.211 86.6038 424.621Z" fill="#BAD9E7"/>
<path d="M104.434 427.172C105.841 427.172 106.981 426.03 106.981 424.621C106.981 423.211 105.841 422.069 104.434 422.069C103.027 422.069 101.887 423.211 101.887 424.621C101.887 426.03 103.027 427.172 104.434 427.172Z" fill="#BAD9E7"/>
<path d="M127.358 424.621C127.358 426.03 126.218 427.172 124.811 427.172C123.405 427.172 122.264 426.03 122.264 424.621C122.264 423.211 123.405 422.069 124.811 422.069C126.218 422.069 127.358 423.211 127.358 424.621Z" fill="#BAD9E7"/>
<path d="M145.189 427.172C146.595 427.172 147.736 426.03 147.736 424.621C147.736 423.211 146.595 422.069 145.189 422.069C143.782 422.069 142.642 423.211 142.642 424.621C142.642 426.03 143.782 427.172 145.189 427.172Z" fill="#BAD9E7"/>
<path d="M168.113 424.621C168.113 426.03 166.973 427.172 165.566 427.172C164.159 427.172 163.019 426.03 163.019 424.621C163.019 423.211 164.159 422.069 165.566 422.069C166.973 422.069 168.113 423.211 168.113 424.621Z" fill="#BAD9E7"/>
<path d="M185.943 427.172C187.35 427.172 188.491 426.03 188.491 424.621C188.491 423.211 187.35 422.069 185.943 422.069C184.537 422.069 183.396 423.211 183.396 424.621C183.396 426.03 184.537 427.172 185.943 427.172Z" fill="#BAD9E7"/>
<path d="M208.868 424.621C208.868 426.03 207.728 427.172 206.321 427.172C204.914 427.172 203.774 426.03 203.774 424.621C203.774 423.211 204.914 422.069 206.321 422.069C207.728 422.069 208.868 423.211 208.868 424.621Z" fill="#BAD9E7"/>
<path d="M226.698 427.172C228.105 427.172 229.245 426.03 229.245 424.621C229.245 423.211 228.105 422.069 226.698 422.069C225.291 422.069 224.151 423.211 224.151 424.621C224.151 426.03 225.291 427.172 226.698 427.172Z" fill="#BAD9E7"/>
<path d="M249.623 424.621C249.623 426.03 248.482 427.172 247.075 427.172C245.669 427.172 244.528 426.03 244.528 424.621C244.528 423.211 245.669 422.069 247.075 422.069C248.482 422.069 249.623 423.211 249.623 424.621Z" fill="#BAD9E7"/>
<path d="M267.453 427.172C268.86 427.172 270 426.03 270 424.621C270 423.211 268.86 422.069 267.453 422.069C266.046 422.069 264.906 423.211 264.906 424.621C264.906 426.03 266.046 427.172 267.453 427.172Z" fill="#BAD9E7"/>
<path d="M5.09434 445.034C5.09434 446.444 3.95396 447.586 2.54717 447.586C1.14038 447.586 0 446.444 0 445.034C0 443.625 1.14038 442.483 2.54717 442.483C3.95396 442.483 5.09434 443.625 5.09434 445.034Z" fill="#BAD9E7"/>
<path d="M22.9245 447.586C24.3313 447.586 25.4717 446.444 25.4717 445.034C25.4717 443.625 24.3313 442.483 22.9245 442.483C21.5177 442.483 20.3774 443.625 20.3774 445.034C20.3774 446.444 21.5177 447.586 22.9245 447.586Z" fill="#BAD9E7"/>
<path d="M45.8491 445.034C45.8491 446.444 44.7087 447.586 43.3019 447.586C41.8951 447.586 40.7547 446.444 40.7547 445.034C40.7547 443.625 41.8951 442.483 43.3019 442.483C44.7087 442.483 45.8491 443.625 45.8491 445.034Z" fill="#BAD9E7"/>
<path d="M63.6792 447.586C65.086 447.586 66.2264 446.444 66.2264 445.034C66.2264 443.625 65.086 442.483 63.6792 442.483C62.2725 442.483 61.1321 443.625 61.1321 445.034C61.1321 446.444 62.2725 447.586 63.6792 447.586Z" fill="#BAD9E7"/>
<path d="M86.6038 445.034C86.6038 446.444 85.4634 447.586 84.0566 447.586C82.6498 447.586 81.5094 446.444 81.5094 445.034C81.5094 443.625 82.6498 442.483 84.0566 442.483C85.4634 442.483 86.6038 443.625 86.6038 445.034Z" fill="#BAD9E7"/>
<path d="M104.434 447.586C105.841 447.586 106.981 446.444 106.981 445.034C106.981 443.625 105.841 442.483 104.434 442.483C103.027 442.483 101.887 443.625 101.887 445.034C101.887 446.444 103.027 447.586 104.434 447.586Z" fill="#BAD9E7"/>
<path d="M127.358 445.034C127.358 446.444 126.218 447.586 124.811 447.586C123.405 447.586 122.264 446.444 122.264 445.034C122.264 443.625 123.405 442.483 124.811 442.483C126.218 442.483 127.358 443.625 127.358 445.034Z" fill="#BAD9E7"/>
<path d="M145.189 447.586C146.595 447.586 147.736 446.444 147.736 445.034C147.736 443.625 146.595 442.483 145.189 442.483C143.782 442.483 142.642 443.625 142.642 445.034C142.642 446.444 143.782 447.586 145.189 447.586Z" fill="#BAD9E7"/>
<path d="M168.113 445.034C168.113 446.444 166.973 447.586 165.566 447.586C164.159 447.586 163.019 446.444 163.019 445.034C163.019 443.625 164.159 442.483 165.566 442.483C166.973 442.483 168.113 443.625 168.113 445.034Z" fill="#BAD9E7"/>
<path d="M185.943 447.586C187.35 447.586 188.491 446.444 188.491 445.034C188.491 443.625 187.35 442.483 185.943 442.483C184.537 442.483 183.396 443.625 183.396 445.034C183.396 446.444 184.537 447.586 185.943 447.586Z" fill="#BAD9E7"/>
<path d="M208.868 445.034C208.868 446.444 207.728 447.586 206.321 447.586C204.914 447.586 203.774 446.444 203.774 445.034C203.774 443.625 204.914 442.483 206.321 442.483C207.728 442.483 208.868 443.625 208.868 445.034Z" fill="#BAD9E7"/>
<path d="M226.698 447.586C228.105 447.586 229.245 446.444 229.245 445.034C229.245 443.625 228.105 442.483 226.698 442.483C225.291 442.483 224.151 443.625 224.151 445.034C224.151 446.444 225.291 447.586 226.698 447.586Z" fill="#BAD9E7"/>
<path d="M249.623 445.034C249.623 446.444 248.482 447.586 247.075 447.586C245.669 447.586 244.528 446.444 244.528 445.034C244.528 443.625 245.669 442.483 247.075 442.483C248.482 442.483 249.623 443.625 249.623 445.034Z" fill="#BAD9E7"/>
<path d="M267.453 447.586C268.86 447.586 270 446.444 270 445.034C270 443.625 268.86 442.483 267.453 442.483C266.046 442.483 264.906 443.625 264.906 445.034C264.906 446.444 266.046 447.586 267.453 447.586Z" fill="#BAD9E7"/>
<path d="M5.09434 465.448C5.09434 466.858 3.95396 468 2.54717 468C1.14038 468 0 466.858 0 465.448C0 464.039 1.14038 462.897 2.54717 462.897C3.95396 462.897 5.09434 464.039 5.09434 465.448Z" fill="#BAD9E7"/>
<path d="M22.9245 468C24.3313 468 25.4717 466.858 25.4717 465.448C25.4717 464.039 24.3313 462.897 22.9245 462.897C21.5177 462.897 20.3774 464.039 20.3774 465.448C20.3774 466.858 21.5177 468 22.9245 468Z" fill="#BAD9E7"/>
<path d="M45.8491 465.448C45.8491 466.858 44.7087 468 43.3019 468C41.8951 468 40.7547 466.858 40.7547 465.448C40.7547 464.039 41.8951 462.897 43.3019 462.897C44.7087 462.897 45.8491 464.039 45.8491 465.448Z" fill="#BAD9E7"/>
<path d="M63.6792 468C65.086 468 66.2264 466.858 66.2264 465.448C66.2264 464.039 65.086 462.897 63.6792 462.897C62.2725 462.897 61.1321 464.039 61.1321 465.448C61.1321 466.858 62.2725 468 63.6792 468Z" fill="#BAD9E7"/>
<path d="M86.6038 465.448C86.6038 466.858 85.4634 468 84.0566 468C82.6498 468 81.5094 466.858 81.5094 465.448C81.5094 464.039 82.6498 462.897 84.0566 462.897C85.4634 462.897 86.6038 464.039 86.6038 465.448Z" fill="#BAD9E7"/>
<path d="M104.434 468C105.841 468 106.981 466.858 106.981 465.448C106.981 464.039 105.841 462.897 104.434 462.897C103.027 462.897 101.887 464.039 101.887 465.448C101.887 466.858 103.027 468 104.434 468Z" fill="#BAD9E7"/>
<path d="M127.358 465.448C127.358 466.858 126.218 468 124.811 468C123.405 468 122.264 466.858 122.264 465.448C122.264 464.039 123.405 462.897 124.811 462.897C126.218 462.897 127.358 464.039 127.358 465.448Z" fill="#BAD9E7"/>
<path d="M145.189 468C146.595 468 147.736 466.858 147.736 465.448C147.736 464.039 146.595 462.897 145.189 462.897C143.782 462.897 142.642 464.039 142.642 465.448C142.642 466.858 143.782 468 145.189 468Z" fill="#BAD9E7"/>
<path d="M168.113 465.448C168.113 466.858 166.973 468 165.566 468C164.159 468 163.019 466.858 163.019 465.448C163.019 464.039 164.159 462.897 165.566 462.897C166.973 462.897 168.113 464.039 168.113 465.448Z" fill="#BAD9E7"/>
<path d="M185.943 468C187.35 468 188.491 466.858 188.491 465.448C188.491 464.039 187.35 462.897 185.943 462.897C184.537 462.897 183.396 464.039 183.396 465.448C183.396 466.858 184.537 468 185.943 468Z" fill="#BAD9E7"/>
<path d="M208.868 465.448C208.868 466.858 207.728 468 206.321 468C204.914 468 203.774 466.858 203.774 465.448C203.774 464.039 204.914 462.897 206.321 462.897C207.728 462.897 208.868 464.039 208.868 465.448Z" fill="#BAD9E7"/>
<path d="M226.698 468C228.105 468 229.245 466.858 229.245 465.448C229.245 464.039 228.105 462.897 226.698 462.897C225.291 462.897 224.151 464.039 224.151 465.448C224.151 466.858 225.291 468 226.698 468Z" fill="#BAD9E7"/>
<path d="M249.623 465.448C249.623 466.858 248.482 468 247.075 468C245.669 468 244.528 466.858 244.528 465.448C244.528 464.039 245.669 462.897 247.075 462.897C248.482 462.897 249.623 464.039 249.623 465.448Z" fill="#BAD9E7"/>
<path d="M267.453 468C268.86 468 270 466.858 270 465.448C270 464.039 268.86 462.897 267.453 462.897C266.046 462.897 264.906 464.039 264.906 465.448C264.906 466.858 266.046 468 267.453 468Z" fill="#BAD9E7"/>
</g>
<defs>
<linearGradient id="paint0_linear" x1="316.973" y1="0.0324823" x2="316.973" y2="434.032" gradientUnits="userSpaceOnUse">
<stop stop-color="#BAD9E7" stop-opacity="0.44"/>
<stop offset="1" stop-color="white"/>
</linearGradient>
</defs>
</svg>
