<svg width="725" height="513" viewBox="0 0 725 513" fill="none" xmlns="http://www.w3.org/2000/svg">
<g clip-path="url(#clip0)">
<path fill-rule="evenodd" clip-rule="evenodd" d="M419.269 4.09444C419.269 4.09444 538.306 17.7048 528.421 134.835C521.252 219.896 572.71 250.997 587.894 298.645C604.327 350.035 570.545 484.926 433.877 439.791C297.209 394.656 290.838 471.795 218.623 505.398C146.408 539.001 -67.5161 252.305 207.065 94.8569C293.472 45.2495 298.393 2.36875 419.269 4.09444Z" fill="url(#paint0_linear)"/>
<g opacity="0.5">
<path d="M3.30189 199.621C5.1255 199.621 6.60377 198.139 6.60377 196.31C6.60377 194.482 5.1255 193 3.30189 193C1.47827 193 0 194.482 0 196.31C0 198.139 1.47827 199.621 3.30189 199.621Z" fill="#BAD9E7"/>
<path d="M29.717 199.621C31.5406 199.621 33.0189 198.139 33.0189 196.31C33.0189 194.482 31.5406 193 29.717 193C27.8934 193 26.4151 194.482 26.4151 196.31C26.4151 198.139 27.8934 199.621 29.717 199.621Z" fill="#BAD9E7"/>
<path d="M59.434 196.31C59.434 198.139 57.9557 199.621 56.1321 199.621C54.3085 199.621 52.8302 198.139 52.8302 196.31C52.8302 194.482 54.3085 193 56.1321 193C57.9557 193 59.434 194.482 59.434 196.31Z" fill="#BAD9E7"/>
<path d="M82.5472 199.621C84.3708 199.621 85.8491 198.139 85.8491 196.31C85.8491 194.482 84.3708 193 82.5472 193C80.7236 193 79.2453 194.482 79.2453 196.31C79.2453 198.139 80.7236 199.621 82.5472 199.621Z" fill="#BAD9E7"/>
<path d="M112.264 196.31C112.264 198.139 110.786 199.621 108.962 199.621C107.139 199.621 105.66 198.139 105.66 196.31C105.66 194.482 107.139 193 108.962 193C110.786 193 112.264 194.482 112.264 196.31Z" fill="#BAD9E7"/>
<path d="M135.377 199.621C137.201 199.621 138.679 198.139 138.679 196.31C138.679 194.482 137.201 193 135.377 193C133.554 193 132.075 194.482 132.075 196.31C132.075 198.139 133.554 199.621 135.377 199.621Z" fill="#BAD9E7"/>
<path d="M165.094 196.31C165.094 198.139 163.616 199.621 161.792 199.621C159.969 199.621 158.491 198.139 158.491 196.31C158.491 194.482 159.969 193 161.792 193C163.616 193 165.094 194.482 165.094 196.31Z" fill="#BAD9E7"/>
<path d="M188.208 199.621C190.031 199.621 191.509 198.139 191.509 196.31C191.509 194.482 190.031 193 188.208 193C186.384 193 184.906 194.482 184.906 196.31C184.906 198.139 186.384 199.621 188.208 199.621Z" fill="#BAD9E7"/>
<path d="M217.925 196.31C217.925 198.139 216.446 199.621 214.623 199.621C212.799 199.621 211.321 198.139 211.321 196.31C211.321 194.482 212.799 193 214.623 193C216.446 193 217.925 194.482 217.925 196.31Z" fill="#BAD9E7"/>
<path d="M241.038 199.621C242.861 199.621 244.34 198.139 244.34 196.31C244.34 194.482 242.861 193 241.038 193C239.214 193 237.736 194.482 237.736 196.31C237.736 198.139 239.214 199.621 241.038 199.621Z" fill="#BAD9E7"/>
<path d="M270.755 196.31C270.755 198.139 269.276 199.621 267.453 199.621C265.629 199.621 264.151 198.139 264.151 196.31C264.151 194.482 265.629 193 267.453 193C269.276 193 270.755 194.482 270.755 196.31Z" fill="#BAD9E7"/>
<path d="M293.868 199.621C295.692 199.621 297.17 198.139 297.17 196.31C297.17 194.482 295.692 193 293.868 193C292.044 193 290.566 194.482 290.566 196.31C290.566 198.139 292.044 199.621 293.868 199.621Z" fill="#BAD9E7"/>
<path d="M323.585 196.31C323.585 198.139 322.107 199.621 320.283 199.621C318.459 199.621 316.981 198.139 316.981 196.31C316.981 194.482 318.459 193 320.283 193C322.107 193 323.585 194.482 323.585 196.31Z" fill="#BAD9E7"/>
<path d="M346.698 199.621C348.522 199.621 350 198.139 350 196.31C350 194.482 348.522 193 346.698 193C344.875 193 343.396 194.482 343.396 196.31C343.396 198.139 344.875 199.621 346.698 199.621Z" fill="#BAD9E7"/>
<path d="M6.60377 222.793C6.60377 224.621 5.1255 226.103 3.30189 226.103C1.47827 226.103 0 224.621 0 222.793C0 220.965 1.47827 219.483 3.30189 219.483C5.1255 219.483 6.60377 220.965 6.60377 222.793Z" fill="#BAD9E7"/>
<path d="M29.717 226.103C31.5406 226.103 33.0189 224.621 33.0189 222.793C33.0189 220.965 31.5406 219.483 29.717 219.483C27.8934 219.483 26.4151 220.965 26.4151 222.793C26.4151 224.621 27.8934 226.103 29.717 226.103Z" fill="#BAD9E7"/>
<path d="M59.434 222.793C59.434 224.621 57.9557 226.103 56.1321 226.103C54.3085 226.103 52.8302 224.621 52.8302 222.793C52.8302 220.965 54.3085 219.483 56.1321 219.483C57.9557 219.483 59.434 220.965 59.434 222.793Z" fill="#BAD9E7"/>
<path d="M82.5472 226.103C84.3708 226.103 85.8491 224.621 85.8491 222.793C85.8491 220.965 84.3708 219.483 82.5472 219.483C80.7236 219.483 79.2453 220.965 79.2453 222.793C79.2453 224.621 80.7236 226.103 82.5472 226.103Z" fill="#BAD9E7"/>
<path d="M112.264 222.793C112.264 224.621 110.786 226.103 108.962 226.103C107.139 226.103 105.66 224.621 105.66 222.793C105.66 220.965 107.139 219.483 108.962 219.483C110.786 219.483 112.264 220.965 112.264 222.793Z" fill="#BAD9E7"/>
<path d="M135.377 226.103C137.201 226.103 138.679 224.621 138.679 222.793C138.679 220.965 137.201 219.483 135.377 219.483C133.554 219.483 132.075 220.965 132.075 222.793C132.075 224.621 133.554 226.103 135.377 226.103Z" fill="#BAD9E7"/>
<path d="M165.094 222.793C165.094 224.621 163.616 226.103 161.792 226.103C159.969 226.103 158.491 224.621 158.491 222.793C158.491 220.965 159.969 219.483 161.792 219.483C163.616 219.483 165.094 220.965 165.094 222.793Z" fill="#BAD9E7"/>
<path d="M188.208 226.103C190.031 226.103 191.509 224.621 191.509 222.793C191.509 220.965 190.031 219.483 188.208 219.483C186.384 219.483 184.906 220.965 184.906 222.793C184.906 224.621 186.384 226.103 188.208 226.103Z" fill="#BAD9E7"/>
<path d="M217.925 222.793C217.925 224.621 216.446 226.103 214.623 226.103C212.799 226.103 211.321 224.621 211.321 222.793C211.321 220.965 212.799 219.483 214.623 219.483C216.446 219.483 217.925 220.965 217.925 222.793Z" fill="#BAD9E7"/>
<path d="M241.038 226.103C242.861 226.103 244.34 224.621 244.34 222.793C244.34 220.965 242.861 219.483 241.038 219.483C239.214 219.483 237.736 220.965 237.736 222.793C237.736 224.621 239.214 226.103 241.038 226.103Z" fill="#BAD9E7"/>
<path d="M270.755 222.793C270.755 224.621 269.276 226.103 267.453 226.103C265.629 226.103 264.151 224.621 264.151 222.793C264.151 220.965 265.629 219.483 267.453 219.483C269.276 219.483 270.755 220.965 270.755 222.793Z" fill="#BAD9E7"/>
<path d="M293.868 226.103C295.692 226.103 297.17 224.621 297.17 222.793C297.17 220.965 295.692 219.483 293.868 219.483C292.044 219.483 290.566 220.965 290.566 222.793C290.566 224.621 292.044 226.103 293.868 226.103Z" fill="#BAD9E7"/>
<path d="M323.585 222.793C323.585 224.621 322.107 226.103 320.283 226.103C318.459 226.103 316.981 224.621 316.981 222.793C316.981 220.965 318.459 219.483 320.283 219.483C322.107 219.483 323.585 220.965 323.585 222.793Z" fill="#BAD9E7"/>
<path d="M346.698 226.103C348.522 226.103 350 224.621 350 222.793C350 220.965 348.522 219.483 346.698 219.483C344.875 219.483 343.396 220.965 343.396 222.793C343.396 224.621 344.875 226.103 346.698 226.103Z" fill="#BAD9E7"/>
<path d="M6.60377 249.276C6.60377 251.104 5.1255 252.586 3.30189 252.586C1.47827 252.586 0 251.104 0 249.276C0 247.448 1.47827 245.966 3.30189 245.966C5.1255 245.966 6.60377 247.448 6.60377 249.276Z" fill="#BAD9E7"/>
<path d="M29.717 252.586C31.5406 252.586 33.0189 251.104 33.0189 249.276C33.0189 247.448 31.5406 245.966 29.717 245.966C27.8934 245.966 26.4151 247.448 26.4151 249.276C26.4151 251.104 27.8934 252.586 29.717 252.586Z" fill="#BAD9E7"/>
<path d="M59.434 249.276C59.434 251.104 57.9557 252.586 56.1321 252.586C54.3085 252.586 52.8302 251.104 52.8302 249.276C52.8302 247.448 54.3085 245.966 56.1321 245.966C57.9557 245.966 59.434 247.448 59.434 249.276Z" fill="#BAD9E7"/>
<path d="M82.5472 252.586C84.3708 252.586 85.8491 251.104 85.8491 249.276C85.8491 247.448 84.3708 245.966 82.5472 245.966C80.7236 245.966 79.2453 247.448 79.2453 249.276C79.2453 251.104 80.7236 252.586 82.5472 252.586Z" fill="#BAD9E7"/>
<path d="M112.264 249.276C112.264 251.104 110.786 252.586 108.962 252.586C107.139 252.586 105.66 251.104 105.66 249.276C105.66 247.448 107.139 245.966 108.962 245.966C110.786 245.966 112.264 247.448 112.264 249.276Z" fill="#BAD9E7"/>
<path d="M135.377 252.586C137.201 252.586 138.679 251.104 138.679 249.276C138.679 247.448 137.201 245.966 135.377 245.966C133.554 245.966 132.075 247.448 132.075 249.276C132.075 251.104 133.554 252.586 135.377 252.586Z" fill="#BAD9E7"/>
<path d="M165.094 249.276C165.094 251.104 163.616 252.586 161.792 252.586C159.969 252.586 158.491 251.104 158.491 249.276C158.491 247.448 159.969 245.966 161.792 245.966C163.616 245.966 165.094 247.448 165.094 249.276Z" fill="#BAD9E7"/>
<path d="M188.208 252.586C190.031 252.586 191.509 251.104 191.509 249.276C191.509 247.448 190.031 245.966 188.208 245.966C186.384 245.966 184.906 247.448 184.906 249.276C184.906 251.104 186.384 252.586 188.208 252.586Z" fill="#BAD9E7"/>
<path d="M217.925 249.276C217.925 251.104 216.446 252.586 214.623 252.586C212.799 252.586 211.321 251.104 211.321 249.276C211.321 247.448 212.799 245.966 214.623 245.966C216.446 245.966 217.925 247.448 217.925 249.276Z" fill="#BAD9E7"/>
<path d="M241.038 252.586C242.861 252.586 244.34 251.104 244.34 249.276C244.34 247.448 242.861 245.966 241.038 245.966C239.214 245.966 237.736 247.448 237.736 249.276C237.736 251.104 239.214 252.586 241.038 252.586Z" fill="#BAD9E7"/>
<path d="M270.755 249.276C270.755 251.104 269.276 252.586 267.453 252.586C265.629 252.586 264.151 251.104 264.151 249.276C264.151 247.448 265.629 245.966 267.453 245.966C269.276 245.966 270.755 247.448 270.755 249.276Z" fill="#BAD9E7"/>
<path d="M293.868 252.586C295.692 252.586 297.17 251.104 297.17 249.276C297.17 247.448 295.692 245.966 293.868 245.966C292.044 245.966 290.566 247.448 290.566 249.276C290.566 251.104 292.044 252.586 293.868 252.586Z" fill="#BAD9E7"/>
<path d="M323.585 249.276C323.585 251.104 322.107 252.586 320.283 252.586C318.459 252.586 316.981 251.104 316.981 249.276C316.981 247.448 318.459 245.966 320.283 245.966C322.107 245.966 323.585 247.448 323.585 249.276Z" fill="#BAD9E7"/>
<path d="M346.698 252.586C348.522 252.586 350 251.104 350 249.276C350 247.448 348.522 245.966 346.698 245.966C344.875 245.966 343.396 247.448 343.396 249.276C343.396 251.104 344.875 252.586 346.698 252.586Z" fill="#BAD9E7"/>
<path d="M6.60377 275.759C6.60377 277.587 5.1255 279.069 3.30189 279.069C1.47827 279.069 0 277.587 0 275.759C0 273.93 1.47827 272.448 3.30189 272.448C5.1255 272.448 6.60377 273.93 6.60377 275.759Z" fill="#BAD9E7"/>
<path d="M29.717 279.069C31.5406 279.069 33.0189 277.587 33.0189 275.759C33.0189 273.93 31.5406 272.448 29.717 272.448C27.8934 272.448 26.4151 273.93 26.4151 275.759C26.4151 277.587 27.8934 279.069 29.717 279.069Z" fill="#BAD9E7"/>
<path d="M59.434 275.759C59.434 277.587 57.9557 279.069 56.1321 279.069C54.3085 279.069 52.8302 277.587 52.8302 275.759C52.8302 273.93 54.3085 272.448 56.1321 272.448C57.9557 272.448 59.434 273.93 59.434 275.759Z" fill="#BAD9E7"/>
<path d="M82.5472 279.069C84.3708 279.069 85.8491 277.587 85.8491 275.759C85.8491 273.93 84.3708 272.448 82.5472 272.448C80.7236 272.448 79.2453 273.93 79.2453 275.759C79.2453 277.587 80.7236 279.069 82.5472 279.069Z" fill="#BAD9E7"/>
<path d="M112.264 275.759C112.264 277.587 110.786 279.069 108.962 279.069C107.139 279.069 105.66 277.587 105.66 275.759C105.66 273.93 107.139 272.448 108.962 272.448C110.786 272.448 112.264 273.93 112.264 275.759Z" fill="#BAD9E7"/>
<path d="M135.377 279.069C137.201 279.069 138.679 277.587 138.679 275.759C138.679 273.93 137.201 272.448 135.377 272.448C133.554 272.448 132.075 273.93 132.075 275.759C132.075 277.587 133.554 279.069 135.377 279.069Z" fill="#BAD9E7"/>
<path d="M165.094 275.759C165.094 277.587 163.616 279.069 161.792 279.069C159.969 279.069 158.491 277.587 158.491 275.759C158.491 273.93 159.969 272.448 161.792 272.448C163.616 272.448 165.094 273.93 165.094 275.759Z" fill="#BAD9E7"/>
<path d="M188.208 279.069C190.031 279.069 191.509 277.587 191.509 275.759C191.509 273.93 190.031 272.448 188.208 272.448C186.384 272.448 184.906 273.93 184.906 275.759C184.906 277.587 186.384 279.069 188.208 279.069Z" fill="#BAD9E7"/>
<path d="M217.925 275.759C217.925 277.587 216.446 279.069 214.623 279.069C212.799 279.069 211.321 277.587 211.321 275.759C211.321 273.93 212.799 272.448 214.623 272.448C216.446 272.448 217.925 273.93 217.925 275.759Z" fill="#BAD9E7"/>
<path d="M241.038 279.069C242.861 279.069 244.34 277.587 244.34 275.759C244.34 273.93 242.861 272.448 241.038 272.448C239.214 272.448 237.736 273.93 237.736 275.759C237.736 277.587 239.214 279.069 241.038 279.069Z" fill="#BAD9E7"/>
<path d="M270.755 275.759C270.755 277.587 269.276 279.069 267.453 279.069C265.629 279.069 264.151 277.587 264.151 275.759C264.151 273.93 265.629 272.448 267.453 272.448C269.276 272.448 270.755 273.93 270.755 275.759Z" fill="#BAD9E7"/>
<path d="M293.868 279.069C295.692 279.069 297.17 277.587 297.17 275.759C297.17 273.93 295.692 272.448 293.868 272.448C292.044 272.448 290.566 273.93 290.566 275.759C290.566 277.587 292.044 279.069 293.868 279.069Z" fill="#BAD9E7"/>
<path d="M323.585 275.759C323.585 277.587 322.107 279.069 320.283 279.069C318.459 279.069 316.981 277.587 316.981 275.759C316.981 273.93 318.459 272.448 320.283 272.448C322.107 272.448 323.585 273.93 323.585 275.759Z" fill="#BAD9E7"/>
<path d="M346.698 279.069C348.522 279.069 350 277.587 350 275.759C350 273.93 348.522 272.448 346.698 272.448C344.875 272.448 343.396 273.93 343.396 275.759C343.396 277.587 344.875 279.069 346.698 279.069Z" fill="#BAD9E7"/>
<path d="M6.60377 302.241C6.60377 304.07 5.1255 305.552 3.30189 305.552C1.47827 305.552 0 304.07 0 302.241C0 300.413 1.47827 298.931 3.30189 298.931C5.1255 298.931 6.60377 300.413 6.60377 302.241Z" fill="#BAD9E7"/>
<path d="M29.717 305.552C31.5406 305.552 33.0189 304.07 33.0189 302.241C33.0189 300.413 31.5406 298.931 29.717 298.931C27.8934 298.931 26.4151 300.413 26.4151 302.241C26.4151 304.07 27.8934 305.552 29.717 305.552Z" fill="#BAD9E7"/>
<path d="M59.434 302.241C59.434 304.07 57.9557 305.552 56.1321 305.552C54.3085 305.552 52.8302 304.07 52.8302 302.241C52.8302 300.413 54.3085 298.931 56.1321 298.931C57.9557 298.931 59.434 300.413 59.434 302.241Z" fill="#BAD9E7"/>
<path d="M82.5472 305.552C84.3708 305.552 85.8491 304.07 85.8491 302.241C85.8491 300.413 84.3708 298.931 82.5472 298.931C80.7236 298.931 79.2453 300.413 79.2453 302.241C79.2453 304.07 80.7236 305.552 82.5472 305.552Z" fill="#BAD9E7"/>
<path d="M112.264 302.241C112.264 304.07 110.786 305.552 108.962 305.552C107.139 305.552 105.66 304.07 105.66 302.241C105.66 300.413 107.139 298.931 108.962 298.931C110.786 298.931 112.264 300.413 112.264 302.241Z" fill="#BAD9E7"/>
<path d="M135.377 305.552C137.201 305.552 138.679 304.07 138.679 302.241C138.679 300.413 137.201 298.931 135.377 298.931C133.554 298.931 132.075 300.413 132.075 302.241C132.075 304.07 133.554 305.552 135.377 305.552Z" fill="#BAD9E7"/>
<path d="M165.094 302.241C165.094 304.07 163.616 305.552 161.792 305.552C159.969 305.552 158.491 304.07 158.491 302.241C158.491 300.413 159.969 298.931 161.792 298.931C163.616 298.931 165.094 300.413 165.094 302.241Z" fill="#BAD9E7"/>
<path d="M188.208 305.552C190.031 305.552 191.509 304.07 191.509 302.241C191.509 300.413 190.031 298.931 188.208 298.931C186.384 298.931 184.906 300.413 184.906 302.241C184.906 304.07 186.384 305.552 188.208 305.552Z" fill="#BAD9E7"/>
<path d="M217.925 302.241C217.925 304.07 216.446 305.552 214.623 305.552C212.799 305.552 211.321 304.07 211.321 302.241C211.321 300.413 212.799 298.931 214.623 298.931C216.446 298.931 217.925 300.413 217.925 302.241Z" fill="#BAD9E7"/>
<path d="M241.038 305.552C242.861 305.552 244.34 304.07 244.34 302.241C244.34 300.413 242.861 298.931 241.038 298.931C239.214 298.931 237.736 300.413 237.736 302.241C237.736 304.07 239.214 305.552 241.038 305.552Z" fill="#BAD9E7"/>
<path d="M270.755 302.241C270.755 304.07 269.276 305.552 267.453 305.552C265.629 305.552 264.151 304.07 264.151 302.241C264.151 300.413 265.629 298.931 267.453 298.931C269.276 298.931 270.755 300.413 270.755 302.241Z" fill="#BAD9E7"/>
<path d="M293.868 305.552C295.692 305.552 297.17 304.07 297.17 302.241C297.17 300.413 295.692 298.931 293.868 298.931C292.044 298.931 290.566 300.413 290.566 302.241C290.566 304.07 292.044 305.552 293.868 305.552Z" fill="#BAD9E7"/>
<path d="M323.585 302.241C323.585 304.07 322.107 305.552 320.283 305.552C318.459 305.552 316.981 304.07 316.981 302.241C316.981 300.413 318.459 298.931 320.283 298.931C322.107 298.931 323.585 300.413 323.585 302.241Z" fill="#BAD9E7"/>
<path d="M346.698 305.552C348.522 305.552 350 304.07 350 302.241C350 300.413 348.522 298.931 346.698 298.931C344.875 298.931 343.396 300.413 343.396 302.241C343.396 304.07 344.875 305.552 346.698 305.552Z" fill="#BAD9E7"/>
<path d="M6.60377 328.724C6.60377 330.552 5.1255 332.034 3.30189 332.034C1.47827 332.034 0 330.552 0 328.724C0 326.896 1.47827 325.414 3.30189 325.414C5.1255 325.414 6.60377 326.896 6.60377 328.724Z" fill="#BAD9E7"/>
<path d="M29.717 332.034C31.5406 332.034 33.0189 330.552 33.0189 328.724C33.0189 326.896 31.5406 325.414 29.717 325.414C27.8934 325.414 26.4151 326.896 26.4151 328.724C26.4151 330.552 27.8934 332.034 29.717 332.034Z" fill="#BAD9E7"/>
<path d="M59.434 328.724C59.434 330.552 57.9557 332.034 56.1321 332.034C54.3085 332.034 52.8302 330.552 52.8302 328.724C52.8302 326.896 54.3085 325.414 56.1321 325.414C57.9557 325.414 59.434 326.896 59.434 328.724Z" fill="#BAD9E7"/>
<path d="M82.5472 332.034C84.3708 332.034 85.8491 330.552 85.8491 328.724C85.8491 326.896 84.3708 325.414 82.5472 325.414C80.7236 325.414 79.2453 326.896 79.2453 328.724C79.2453 330.552 80.7236 332.034 82.5472 332.034Z" fill="#BAD9E7"/>
<path d="M112.264 328.724C112.264 330.552 110.786 332.034 108.962 332.034C107.139 332.034 105.66 330.552 105.66 328.724C105.66 326.896 107.139 325.414 108.962 325.414C110.786 325.414 112.264 326.896 112.264 328.724Z" fill="#BAD9E7"/>
<path d="M135.377 332.034C137.201 332.034 138.679 330.552 138.679 328.724C138.679 326.896 137.201 325.414 135.377 325.414C133.554 325.414 132.075 326.896 132.075 328.724C132.075 330.552 133.554 332.034 135.377 332.034Z" fill="#BAD9E7"/>
<path d="M165.094 328.724C165.094 330.552 163.616 332.034 161.792 332.034C159.969 332.034 158.491 330.552 158.491 328.724C158.491 326.896 159.969 325.414 161.792 325.414C163.616 325.414 165.094 326.896 165.094 328.724Z" fill="#BAD9E7"/>
<path d="M188.208 332.034C190.031 332.034 191.509 330.552 191.509 328.724C191.509 326.896 190.031 325.414 188.208 325.414C186.384 325.414 184.906 326.896 184.906 328.724C184.906 330.552 186.384 332.034 188.208 332.034Z" fill="#BAD9E7"/>
<path d="M217.925 328.724C217.925 330.552 216.446 332.034 214.623 332.034C212.799 332.034 211.321 330.552 211.321 328.724C211.321 326.896 212.799 325.414 214.623 325.414C216.446 325.414 217.925 326.896 217.925 328.724Z" fill="#BAD9E7"/>
<path d="M241.038 332.034C242.861 332.034 244.34 330.552 244.34 328.724C244.34 326.896 242.861 325.414 241.038 325.414C239.214 325.414 237.736 326.896 237.736 328.724C237.736 330.552 239.214 332.034 241.038 332.034Z" fill="#BAD9E7"/>
<path d="M270.755 328.724C270.755 330.552 269.276 332.034 267.453 332.034C265.629 332.034 264.151 330.552 264.151 328.724C264.151 326.896 265.629 325.414 267.453 325.414C269.276 325.414 270.755 326.896 270.755 328.724Z" fill="#BAD9E7"/>
<path d="M293.868 332.034C295.692 332.034 297.17 330.552 297.17 328.724C297.17 326.896 295.692 325.414 293.868 325.414C292.044 325.414 290.566 326.896 290.566 328.724C290.566 330.552 292.044 332.034 293.868 332.034Z" fill="#BAD9E7"/>
<path d="M323.585 328.724C323.585 330.552 322.107 332.034 320.283 332.034C318.459 332.034 316.981 330.552 316.981 328.724C316.981 326.896 318.459 325.414 320.283 325.414C322.107 325.414 323.585 326.896 323.585 328.724Z" fill="#BAD9E7"/>
<path d="M346.698 332.034C348.522 332.034 350 330.552 350 328.724C350 326.896 348.522 325.414 346.698 325.414C344.875 325.414 343.396 326.896 343.396 328.724C343.396 330.552 344.875 332.034 346.698 332.034Z" fill="#BAD9E7"/>
<path d="M6.60377 355.207C6.60377 357.035 5.1255 358.517 3.30189 358.517C1.47827 358.517 0 357.035 0 355.207C0 353.379 1.47827 351.897 3.30189 351.897C5.1255 351.897 6.60377 353.379 6.60377 355.207Z" fill="#BAD9E7"/>
<path d="M29.717 358.517C31.5406 358.517 33.0189 357.035 33.0189 355.207C33.0189 353.379 31.5406 351.897 29.717 351.897C27.8934 351.897 26.4151 353.379 26.4151 355.207C26.4151 357.035 27.8934 358.517 29.717 358.517Z" fill="#BAD9E7"/>
<path d="M59.434 355.207C59.434 357.035 57.9557 358.517 56.1321 358.517C54.3085 358.517 52.8302 357.035 52.8302 355.207C52.8302 353.379 54.3085 351.897 56.1321 351.897C57.9557 351.897 59.434 353.379 59.434 355.207Z" fill="#BAD9E7"/>
<path d="M82.5472 358.517C84.3708 358.517 85.8491 357.035 85.8491 355.207C85.8491 353.379 84.3708 351.897 82.5472 351.897C80.7236 351.897 79.2453 353.379 79.2453 355.207C79.2453 357.035 80.7236 358.517 82.5472 358.517Z" fill="#BAD9E7"/>
<path d="M112.264 355.207C112.264 357.035 110.786 358.517 108.962 358.517C107.139 358.517 105.66 357.035 105.66 355.207C105.66 353.379 107.139 351.897 108.962 351.897C110.786 351.897 112.264 353.379 112.264 355.207Z" fill="#BAD9E7"/>
<path d="M135.377 358.517C137.201 358.517 138.679 357.035 138.679 355.207C138.679 353.379 137.201 351.897 135.377 351.897C133.554 351.897 132.075 353.379 132.075 355.207C132.075 357.035 133.554 358.517 135.377 358.517Z" fill="#BAD9E7"/>
<path d="M165.094 355.207C165.094 357.035 163.616 358.517 161.792 358.517C159.969 358.517 158.491 357.035 158.491 355.207C158.491 353.379 159.969 351.897 161.792 351.897C163.616 351.897 165.094 353.379 165.094 355.207Z" fill="#BAD9E7"/>
<path d="M188.208 358.517C190.031 358.517 191.509 357.035 191.509 355.207C191.509 353.379 190.031 351.897 188.208 351.897C186.384 351.897 184.906 353.379 184.906 355.207C184.906 357.035 186.384 358.517 188.208 358.517Z" fill="#BAD9E7"/>
<path d="M217.925 355.207C217.925 357.035 216.446 358.517 214.623 358.517C212.799 358.517 211.321 357.035 211.321 355.207C211.321 353.379 212.799 351.897 214.623 351.897C216.446 351.897 217.925 353.379 217.925 355.207Z" fill="#BAD9E7"/>
<path d="M241.038 358.517C242.861 358.517 244.34 357.035 244.34 355.207C244.34 353.379 242.861 351.897 241.038 351.897C239.214 351.897 237.736 353.379 237.736 355.207C237.736 357.035 239.214 358.517 241.038 358.517Z" fill="#BAD9E7"/>
<path d="M270.755 355.207C270.755 357.035 269.276 358.517 267.453 358.517C265.629 358.517 264.151 357.035 264.151 355.207C264.151 353.379 265.629 351.897 267.453 351.897C269.276 351.897 270.755 353.379 270.755 355.207Z" fill="#BAD9E7"/>
<path d="M293.868 358.517C295.692 358.517 297.17 357.035 297.17 355.207C297.17 353.379 295.692 351.897 293.868 351.897C292.044 351.897 290.566 353.379 290.566 355.207C290.566 357.035 292.044 358.517 293.868 358.517Z" fill="#BAD9E7"/>
<path d="M323.585 355.207C323.585 357.035 322.107 358.517 320.283 358.517C318.459 358.517 316.981 357.035 316.981 355.207C316.981 353.379 318.459 351.897 320.283 351.897C322.107 351.897 323.585 353.379 323.585 355.207Z" fill="#BAD9E7"/>
<path d="M346.698 358.517C348.522 358.517 350 357.035 350 355.207C350 353.379 348.522 351.897 346.698 351.897C344.875 351.897 343.396 353.379 343.396 355.207C343.396 357.035 344.875 358.517 346.698 358.517Z" fill="#BAD9E7"/>
<path d="M6.60377 381.69C6.60377 383.518 5.1255 385 3.30189 385C1.47827 385 0 383.518 0 381.69C0 379.861 1.47827 378.379 3.30189 378.379C5.1255 378.379 6.60377 379.861 6.60377 381.69Z" fill="#BAD9E7"/>
<path d="M29.717 385C31.5406 385 33.0189 383.518 33.0189 381.69C33.0189 379.861 31.5406 378.379 29.717 378.379C27.8934 378.379 26.4151 379.861 26.4151 381.69C26.4151 383.518 27.8934 385 29.717 385Z" fill="#BAD9E7"/>
<path d="M59.434 381.69C59.434 383.518 57.9557 385 56.1321 385C54.3085 385 52.8302 383.518 52.8302 381.69C52.8302 379.861 54.3085 378.379 56.1321 378.379C57.9557 378.379 59.434 379.861 59.434 381.69Z" fill="#BAD9E7"/>
<path d="M82.5472 385C84.3708 385 85.8491 383.518 85.8491 381.69C85.8491 379.861 84.3708 378.379 82.5472 378.379C80.7236 378.379 79.2453 379.861 79.2453 381.69C79.2453 383.518 80.7236 385 82.5472 385Z" fill="#BAD9E7"/>
<path d="M112.264 381.69C112.264 383.518 110.786 385 108.962 385C107.139 385 105.66 383.518 105.66 381.69C105.66 379.861 107.139 378.379 108.962 378.379C110.786 378.379 112.264 379.861 112.264 381.69Z" fill="#BAD9E7"/>
<path d="M135.377 385C137.201 385 138.679 383.518 138.679 381.69C138.679 379.861 137.201 378.379 135.377 378.379C133.554 378.379 132.075 379.861 132.075 381.69C132.075 383.518 133.554 385 135.377 385Z" fill="#BAD9E7"/>
<path d="M165.094 381.69C165.094 383.518 163.616 385 161.792 385C159.969 385 158.491 383.518 158.491 381.69C158.491 379.861 159.969 378.379 161.792 378.379C163.616 378.379 165.094 379.861 165.094 381.69Z" fill="#BAD9E7"/>
<path d="M188.208 385C190.031 385 191.509 383.518 191.509 381.69C191.509 379.861 190.031 378.379 188.208 378.379C186.384 378.379 184.906 379.861 184.906 381.69C184.906 383.518 186.384 385 188.208 385Z" fill="#BAD9E7"/>
<path d="M217.925 381.69C217.925 383.518 216.446 385 214.623 385C212.799 385 211.321 383.518 211.321 381.69C211.321 379.861 212.799 378.379 214.623 378.379C216.446 378.379 217.925 379.861 217.925 381.69Z" fill="#BAD9E7"/>
<path d="M241.038 385C242.861 385 244.34 383.518 244.34 381.69C244.34 379.861 242.861 378.379 241.038 378.379C239.214 378.379 237.736 379.861 237.736 381.69C237.736 383.518 239.214 385 241.038 385Z" fill="#BAD9E7"/>
<path d="M270.755 381.69C270.755 383.518 269.276 385 267.453 385C265.629 385 264.151 383.518 264.151 381.69C264.151 379.861 265.629 378.379 267.453 378.379C269.276 378.379 270.755 379.861 270.755 381.69Z" fill="#BAD9E7"/>
<path d="M293.868 385C295.692 385 297.17 383.518 297.17 381.69C297.17 379.861 295.692 378.379 293.868 378.379C292.044 378.379 290.566 379.861 290.566 381.69C290.566 383.518 292.044 385 293.868 385Z" fill="#BAD9E7"/>
<path d="M323.585 381.69C323.585 383.518 322.107 385 320.283 385C318.459 385 316.981 383.518 316.981 381.69C316.981 379.861 318.459 378.379 320.283 378.379C322.107 378.379 323.585 379.861 323.585 381.69Z" fill="#BAD9E7"/>
<path d="M346.698 385C348.522 385 350 383.518 350 381.69C350 379.861 348.522 378.379 346.698 378.379C344.875 378.379 343.396 379.861 343.396 381.69C343.396 383.518 344.875 385 346.698 385Z" fill="#BAD9E7"/>
</g>
</g>
<defs>
<linearGradient id="paint0_linear" x1="455.378" y1="14.1832" x2="238.223" y2="526.022" gradientUnits="userSpaceOnUse">
<stop stop-color="#BAD9E7" stop-opacity="0.44"/>
<stop offset="1" stop-color="white"/>
</linearGradient>
<clipPath id="clip0">
<rect width="725" height="513" fill="white"/>
</clipPath>
</defs>
</svg>
