<svg width="36" height="36" viewBox="0 0 36 36" fill="none" xmlns="http://www.w3.org/2000/svg">
<path d="M4.5 14H31.5C31.8978 14 32.2794 13.842 32.5607 13.5607C32.842 13.2794 33 12.8978 33 12.5C33 12.1022 32.842 11.7206 32.5607 11.4393C32.2794 11.158 31.8978 11 31.5 11H4.5C4.10218 11 3.72064 11.158 3.43934 11.4393C3.15804 11.7206 3 12.1022 3 12.5C3 12.8978 3.15804 13.2794 3.43934 13.5607C3.72064 13.842 4.10218 14 4.5 14ZM31.5 23H4.5C4.10218 23 3.72064 23.158 3.43934 23.4393C3.15804 23.7206 3 24.1022 3 24.5C3 24.8978 3.15804 25.2794 3.43934 25.5607C3.72064 25.842 4.10218 26 4.5 26H31.5C31.8978 26 32.2794 25.842 32.5607 25.5607C32.842 25.2794 33 24.8978 33 24.5C33 24.1022 32.842 23.7206 32.5607 23.4393C32.2794 23.158 31.8978 23 31.5 23ZM31.5 17H4.5C4.10218 17 3.72064 17.158 3.43934 17.4393C3.15804 17.7206 3 18.1022 3 18.5C3 18.8978 3.15804 19.2794 3.43934 19.5607C3.72064 19.842 4.10218 20 4.5 20H31.5C31.8978 20 32.2794 19.842 32.5607 19.5607C32.842 19.2794 33 18.8978 33 18.5C33 18.1022 32.842 17.7206 32.5607 17.4393C32.2794 17.158 31.8978 17 31.5 17Z" fill="#63718E"/>
</svg>
