<svg width="137" height="60" viewBox="0 0 137 60" fill="none" xmlns="http://www.w3.org/2000/svg">
<circle cx="30" cy="30" r="30" fill="#FEE5FF"/>
<path d="M42 21.1397C42 19.4057 40.5943 18 38.8603 18H21.1397C19.4057 18 18 19.4057 18 21.1397V38.8601C18 40.5943 19.4057 42 21.1397 42H38.8601C40.5943 42 42 40.5943 42 38.8603V21.1397ZM23.3872 37.5977C22.8672 37.7372 22.3914 37.2613 22.5308 36.7413L23.3932 33.5271L26.6013 36.7352L23.3872 37.5977ZM37.2421 25.9088L27.7474 35.4036L24.5539 32.2102L34.0486 22.7155C34.499 22.2652 35.2289 22.2652 35.6792 22.7155L37.2421 24.2783C37.6923 24.7285 37.6923 25.4585 37.2421 25.9088Z" fill="#C774EE"/>
<path d="M73.825 35H71.098V21.725H75.436L79.414 32.705V21.725H82.132V35H77.767L73.825 24.146V35ZM89.1133 35.207C88.0813 35.207 87.1723 34.994 86.3863 34.568C85.6003 34.142 84.9853 33.557 84.5413 32.813C84.1033 32.063 83.8843 31.199 83.8843 30.221C83.8843 29.249 84.1033 28.391 84.5413 27.647C84.9853 26.897 85.6003 26.315 86.3863 25.901C87.1723 25.481 88.0813 25.271 89.1133 25.271C90.1453 25.271 91.0543 25.481 91.8403 25.901C92.6263 26.315 93.2383 26.897 93.6763 27.647C94.1203 28.391 94.3423 29.249 94.3423 30.221C94.3423 31.199 94.1203 32.063 93.6763 32.813C93.2383 33.557 92.6263 34.142 91.8403 34.568C91.0543 34.994 90.1453 35.207 89.1133 35.207ZM89.1133 32.993C89.8393 32.993 90.4213 32.741 90.8593 32.237C91.2973 31.733 91.5163 31.061 91.5163 30.221C91.5163 29.381 91.2973 28.715 90.8593 28.223C90.4213 27.731 89.8393 27.485 89.1133 27.485C88.3873 27.485 87.8053 27.731 87.3673 28.223C86.9293 28.715 86.7103 29.381 86.7103 30.221C86.7103 31.061 86.9293 31.733 87.3673 32.237C87.8053 32.741 88.3873 32.993 89.1133 32.993ZM100.695 35.198C100.329 35.198 99.9512 35.165 99.5612 35.099C99.1772 35.039 98.8202 34.916 98.4902 34.73C98.1602 34.538 97.8902 34.259 97.6802 33.893C97.4762 33.527 97.3742 33.044 97.3742 32.444V27.602H95.1692V25.442H95.7902C96.2762 25.442 96.6302 25.409 96.8522 25.343C97.0802 25.277 97.2242 25.109 97.2842 24.839C97.3442 24.563 97.3742 24.116 97.3742 23.498V22.292H100.173V25.442H102.954V27.602H100.173V31.652C100.173 32.066 100.221 32.402 100.317 32.66C100.419 32.918 100.668 33.047 101.064 33.047C101.262 33.047 101.448 33.029 101.622 32.993C101.802 32.957 101.937 32.921 102.027 32.885V34.982C101.901 35.036 101.724 35.084 101.496 35.126C101.268 35.174 101.001 35.198 100.695 35.198ZM105.915 23.885C105.483 23.885 105.105 23.771 104.781 23.543C104.463 23.315 104.304 22.994 104.304 22.58C104.304 22.16 104.463 21.836 104.781 21.608C105.105 21.38 105.483 21.266 105.915 21.266C106.347 21.266 106.725 21.38 107.049 21.608C107.373 21.836 107.535 22.16 107.535 22.58C107.535 23 107.373 23.324 107.049 23.552C106.725 23.774 106.347 23.885 105.915 23.885ZM104.538 35V25.442H107.301V35H104.538ZM114.172 35.216C113.122 35.216 112.201 35.006 111.409 34.586C110.623 34.16 110.011 33.572 109.573 32.822C109.135 32.066 108.916 31.19 108.916 30.194C108.916 29.198 109.135 28.331 109.573 27.593C110.011 26.855 110.623 26.282 111.409 25.874C112.201 25.466 113.122 25.262 114.172 25.262C114.958 25.262 115.651 25.379 116.251 25.613C116.857 25.841 117.364 26.144 117.772 26.522C118.186 26.894 118.498 27.308 118.708 27.764C118.918 28.214 119.023 28.661 119.023 29.105V29.177H116.26C116.26 29.129 116.251 29.06 116.233 28.97C116.161 28.592 115.957 28.253 115.621 27.953C115.291 27.653 114.802 27.503 114.154 27.503C113.464 27.503 112.888 27.734 112.426 28.196C111.97 28.652 111.742 29.318 111.742 30.194C111.742 31.058 111.97 31.739 112.426 32.237C112.888 32.729 113.464 32.975 114.154 32.975C114.862 32.975 115.378 32.816 115.702 32.498C116.026 32.174 116.212 31.787 116.26 31.337H119.023C119.023 31.787 118.918 32.24 118.708 32.696C118.504 33.152 118.198 33.569 117.79 33.947C117.382 34.325 116.875 34.631 116.269 34.865C115.669 35.099 114.97 35.216 114.172 35.216ZM130.611 31.985C130.563 32.525 130.335 33.044 129.927 33.542C129.525 34.034 128.955 34.436 128.217 34.748C127.485 35.06 126.6 35.216 125.562 35.216C124.506 35.216 123.585 35.006 122.799 34.586C122.013 34.16 121.404 33.575 120.972 32.831C120.54 32.081 120.324 31.217 120.324 30.239C120.324 29.249 120.543 28.382 120.981 27.638C121.425 26.888 122.04 26.306 122.826 25.892C123.618 25.472 124.533 25.262 125.571 25.262C126.633 25.262 127.551 25.475 128.325 25.901C129.099 26.321 129.696 26.912 130.116 27.674C130.536 28.43 130.746 29.312 130.746 30.32C130.746 30.632 130.734 30.878 130.71 31.058H123.15C123.276 31.706 123.549 32.21 123.969 32.57C124.389 32.924 124.959 33.101 125.679 33.101C126.429 33.101 126.969 32.981 127.299 32.741C127.635 32.495 127.821 32.243 127.857 31.985H130.611ZM125.607 27.35C124.965 27.35 124.434 27.512 124.014 27.836C123.6 28.16 123.321 28.619 123.177 29.213H127.893C127.851 28.739 127.644 28.31 127.272 27.926C126.906 27.542 126.351 27.35 125.607 27.35ZM134.028 35.27C133.614 35.27 133.263 35.126 132.975 34.838C132.687 34.55 132.543 34.199 132.543 33.785C132.543 33.377 132.687 33.029 132.975 32.741C133.263 32.453 133.614 32.309 134.028 32.309C134.436 32.309 134.784 32.453 135.072 32.741C135.36 33.029 135.504 33.377 135.504 33.785C135.504 34.199 135.36 34.55 135.072 34.838C134.784 35.126 134.436 35.27 134.028 35.27ZM134.037 28.475C133.623 28.475 133.272 28.331 132.984 28.043C132.696 27.755 132.552 27.404 132.552 26.99C132.552 26.582 132.696 26.234 132.984 25.946C133.272 25.658 133.623 25.514 134.037 25.514C134.445 25.514 134.793 25.658 135.081 25.946C135.369 26.234 135.513 26.582 135.513 26.99C135.513 27.404 135.369 27.755 135.081 28.043C134.793 28.331 134.445 28.475 134.037 28.475Z" fill="#111563"/>
</svg>
