<svg width="79" height="25" viewBox="0 0 79 25" fill="none" xmlns="http://www.w3.org/2000/svg">
<path d="M15.5351 3.30797C14.7791 2.55197 13.4631 2.55197 12.7071 3.30797L2.80806 13.207C2.43336 13.5822 2.2229 14.0907 2.2229 14.621C2.2229 15.1512 2.43336 15.6598 2.80806 16.035L8.46506 21.692C8.84306 22.07 9.34506 22.278 9.87906 22.278C10.4131 22.278 10.9151 22.07 11.2931 21.692L21.1921 11.793C21.5701 11.415 21.7781 10.913 21.7781 10.379C21.7781 9.84497 21.5701 9.34297 21.1921 8.96497L15.5351 3.30797ZM9.87906 20.278V21.278V20.278L4.22206 14.621L14.1211 4.72197L19.7781 10.379L9.87906 20.278Z" fill="#63718E"/>
<path d="M9 16.5C9.55228 16.5 10 16.0523 10 15.5C10 14.9477 9.55228 14.5 9 14.5C8.44772 14.5 8 14.9477 8 15.5C8 16.0523 8.44772 16.5 9 16.5Z" fill="#63718E"/>
<path d="M15.707 22.207L14.293 20.793L20.293 14.793L21.707 16.208L15.707 22.207Z" fill="#63718E"/>
<path d="M8.29297 2.79297L9.70697 4.20697L3.70697 10.207L2.29297 8.79197L8.29297 2.79297Z" fill="#63718E"/>
<path d="M34.896 9.52783C34.0415 9.52783 33.3799 9.8501 32.9111 10.4946C32.4424 11.1343 32.208 12.0278 32.208 13.1753C32.208 15.563 33.104 16.7568 34.896 16.7568C35.6479 16.7568 36.5586 16.5688 37.6279 16.1929V18.0972C36.749 18.4634 35.7676 18.6465 34.6836 18.6465C33.126 18.6465 31.9346 18.1753 31.1094 17.2329C30.2842 16.2856 29.8716 14.9282 29.8716 13.1606C29.8716 12.0474 30.0742 11.0732 30.4795 10.2383C30.8848 9.39844 31.4658 8.75635 32.2227 8.31201C32.9844 7.86279 33.8755 7.63818 34.896 7.63818C35.936 7.63818 36.981 7.88965 38.0308 8.39258L37.2983 10.2383C36.8979 10.0479 36.4951 9.88184 36.0898 9.74023C35.6846 9.59863 35.2866 9.52783 34.896 9.52783ZM44.9375 18.5L44.5054 17.3867H44.4468C44.0708 17.8604 43.6826 18.1899 43.2822 18.3755C42.8867 18.5562 42.3691 18.6465 41.7295 18.6465C40.9434 18.6465 40.3232 18.4219 39.8691 17.9727C39.4199 17.5234 39.1953 16.8838 39.1953 16.0537C39.1953 15.1846 39.498 14.5449 40.1035 14.1348C40.7139 13.7197 41.6318 13.4902 42.8574 13.4463L44.2783 13.4023V13.0435C44.2783 12.2134 43.8535 11.7983 43.0039 11.7983C42.3496 11.7983 41.5806 11.9961 40.6968 12.3916L39.957 10.8828C40.8994 10.3896 41.9443 10.1431 43.0918 10.1431C44.1904 10.1431 45.0327 10.3823 45.6187 10.8608C46.2046 11.3394 46.4976 12.0669 46.4976 13.0435V18.5H44.9375ZM44.2783 14.7061L43.4141 14.7354C42.7646 14.7549 42.2812 14.8721 41.9639 15.0869C41.6465 15.3018 41.4878 15.6289 41.4878 16.0684C41.4878 16.6982 41.8491 17.0132 42.5718 17.0132C43.0894 17.0132 43.502 16.8643 43.8096 16.5664C44.1221 16.2686 44.2783 15.873 44.2783 15.3799V14.7061ZM51.0386 18.5H48.8047V7.10352H51.0386V18.5ZM55.6235 18.5H53.3896V7.10352H55.6235V18.5ZM67.6719 18.5L67.3716 17.4526H67.2544C67.0151 17.8335 66.6758 18.1289 66.2363 18.3389C65.7969 18.5439 65.2964 18.6465 64.7349 18.6465C63.7729 18.6465 63.0479 18.3901 62.5596 17.8774C62.0713 17.3599 61.8271 16.6177 61.8271 15.6509V10.3115H64.061V15.0942C64.061 15.6851 64.166 16.1294 64.376 16.4272C64.5859 16.7202 64.9204 16.8667 65.3794 16.8667C66.0044 16.8667 66.4561 16.6592 66.7344 16.2441C67.0127 15.8242 67.1519 15.1309 67.1519 14.1641V10.3115H69.3857V18.5H67.6719ZM77.4424 16.0684C77.4424 16.9082 77.1494 17.5479 76.5635 17.9873C75.9824 18.4268 75.1108 18.6465 73.9487 18.6465C73.353 18.6465 72.8452 18.605 72.4253 18.522C72.0054 18.4438 71.6123 18.3267 71.2461 18.1704V16.3247C71.6611 16.52 72.1274 16.6836 72.645 16.8154C73.1675 16.9473 73.6265 17.0132 74.022 17.0132C74.8325 17.0132 75.2378 16.7788 75.2378 16.3101C75.2378 16.1343 75.1841 15.9927 75.0767 15.8853C74.9692 15.7729 74.7837 15.6484 74.52 15.5117C74.2563 15.3701 73.9048 15.2065 73.4653 15.021C72.8354 14.7573 72.3716 14.5132 72.0737 14.2886C71.7808 14.064 71.5659 13.8076 71.4292 13.5195C71.2974 13.2266 71.2314 12.8677 71.2314 12.4429C71.2314 11.7153 71.5122 11.1538 72.0737 10.7583C72.6401 10.3579 73.4409 10.1577 74.4761 10.1577C75.4624 10.1577 76.4219 10.3726 77.3545 10.8022L76.6807 12.4136C76.2705 12.2378 75.8872 12.0938 75.5308 11.9814C75.1743 11.8691 74.8105 11.813 74.4395 11.813C73.7803 11.813 73.4507 11.9912 73.4507 12.3477C73.4507 12.5479 73.5557 12.7212 73.7656 12.8677C73.9805 13.0142 74.4468 13.2314 75.1646 13.5195C75.8042 13.7783 76.2729 14.02 76.5708 14.2446C76.8687 14.4692 77.0884 14.728 77.23 15.021C77.3716 15.314 77.4424 15.6631 77.4424 16.0684Z" fill="#63718E"/>
</svg>
