<svg width="456" height="364" viewBox="0 0 456 364" fill="none" xmlns="http://www.w3.org/2000/svg">
<path fill-rule="evenodd" clip-rule="evenodd" d="M60.3896 208.15C60.3896 208.15 36.689 127.854 114.63 102.243C171.228 83.6387 177.182 42.0449 203.654 19.2712C232.189 -5.32679 328.052 -20.4119 336.306 79.831C344.56 180.074 395.852 163.118 437.122 200.405C478.391 237.692 352.519 453.569 176.534 319.895C121.115 277.847 92.2261 286.385 60.3896 208.15Z" fill="url(#paint0_linear)"/>
<g opacity="0.5">
<path d="M4.30189 8.62069C6.6778 8.62069 8.60377 6.69089 8.60377 4.31034C8.60377 1.9298 6.6778 0 4.30189 0C1.92598 0 0 1.9298 0 4.31034C0 6.69089 1.92598 8.62069 4.30189 8.62069Z" fill="#BAD9E7"/>
<path d="M38.717 8.62069C41.0929 8.62069 43.0189 6.69089 43.0189 4.31034C43.0189 1.9298 41.0929 0 38.717 0C36.3411 0 34.4151 1.9298 34.4151 4.31034C34.4151 6.69089 36.3411 8.62069 38.717 8.62069Z" fill="#BAD9E7"/>
<path d="M77.434 4.31034C77.434 6.69089 75.508 8.62069 73.1321 8.62069C70.7562 8.62069 68.8302 6.69089 68.8302 4.31034C68.8302 1.9298 70.7562 0 73.1321 0C75.508 0 77.434 1.9298 77.434 4.31034Z" fill="#BAD9E7"/>
<path d="M107.547 8.62069C109.923 8.62069 111.849 6.69089 111.849 4.31034C111.849 1.9298 109.923 0 107.547 0C105.171 0 103.245 1.9298 103.245 4.31034C103.245 6.69089 105.171 8.62069 107.547 8.62069Z" fill="#BAD9E7"/>
<path d="M146.264 4.31034C146.264 6.69089 144.338 8.62069 141.962 8.62069C139.586 8.62069 137.66 6.69089 137.66 4.31034C137.66 1.9298 139.586 0 141.962 0C144.338 0 146.264 1.9298 146.264 4.31034Z" fill="#BAD9E7"/>
<path d="M176.377 8.62069C178.753 8.62069 180.679 6.69089 180.679 4.31034C180.679 1.9298 178.753 0 176.377 0C174.001 0 172.075 1.9298 172.075 4.31034C172.075 6.69089 174.001 8.62069 176.377 8.62069Z" fill="#BAD9E7"/>
<path d="M215.094 4.31034C215.094 6.69089 213.168 8.62069 210.792 8.62069C208.417 8.62069 206.491 6.69089 206.491 4.31034C206.491 1.9298 208.417 0 210.792 0C213.168 0 215.094 1.9298 215.094 4.31034Z" fill="#BAD9E7"/>
<path d="M245.208 8.62069C247.583 8.62069 249.509 6.69089 249.509 4.31034C249.509 1.9298 247.583 0 245.208 0C242.832 0 240.906 1.9298 240.906 4.31034C240.906 6.69089 242.832 8.62069 245.208 8.62069Z" fill="#BAD9E7"/>
<path d="M283.925 4.31034C283.925 6.69089 281.999 8.62069 279.623 8.62069C277.247 8.62069 275.321 6.69089 275.321 4.31034C275.321 1.9298 277.247 0 279.623 0C281.999 0 283.925 1.9298 283.925 4.31034Z" fill="#BAD9E7"/>
<path d="M314.038 8.62069C316.414 8.62069 318.34 6.69089 318.34 4.31034C318.34 1.9298 316.414 0 314.038 0C311.662 0 309.736 1.9298 309.736 4.31034C309.736 6.69089 311.662 8.62069 314.038 8.62069Z" fill="#BAD9E7"/>
<path d="M352.755 4.31034C352.755 6.69089 350.829 8.62069 348.453 8.62069C346.077 8.62069 344.151 6.69089 344.151 4.31034C344.151 1.9298 346.077 0 348.453 0C350.829 0 352.755 1.9298 352.755 4.31034Z" fill="#BAD9E7"/>
<path d="M382.868 8.62069C385.244 8.62069 387.17 6.69089 387.17 4.31034C387.17 1.9298 385.244 0 382.868 0C380.492 0 378.566 1.9298 378.566 4.31034C378.566 6.69089 380.492 8.62069 382.868 8.62069Z" fill="#BAD9E7"/>
<path d="M421.585 4.31034C421.585 6.69089 419.659 8.62069 417.283 8.62069C414.907 8.62069 412.981 6.69089 412.981 4.31034C412.981 1.9298 414.907 0 417.283 0C419.659 0 421.585 1.9298 421.585 4.31034Z" fill="#BAD9E7"/>
<path d="M451.698 8.62069C454.074 8.62069 456 6.69089 456 4.31034C456 1.9298 454.074 0 451.698 0C449.322 0 447.396 1.9298 447.396 4.31034C447.396 6.69089 449.322 8.62069 451.698 8.62069Z" fill="#BAD9E7"/>
<path d="M8.60377 38.7931C8.60377 41.1736 6.6778 43.1034 4.30189 43.1034C1.92598 43.1034 0 41.1736 0 38.7931C0 36.4126 1.92598 34.4828 4.30189 34.4828C6.6778 34.4828 8.60377 36.4126 8.60377 38.7931Z" fill="#BAD9E7"/>
<path d="M38.717 43.1034C41.0929 43.1034 43.0189 41.1736 43.0189 38.7931C43.0189 36.4126 41.0929 34.4828 38.717 34.4828C36.3411 34.4828 34.4151 36.4126 34.4151 38.7931C34.4151 41.1736 36.3411 43.1034 38.717 43.1034Z" fill="#BAD9E7"/>
<path d="M77.434 38.7931C77.434 41.1736 75.508 43.1034 73.1321 43.1034C70.7562 43.1034 68.8302 41.1736 68.8302 38.7931C68.8302 36.4126 70.7562 34.4828 73.1321 34.4828C75.508 34.4828 77.434 36.4126 77.434 38.7931Z" fill="#BAD9E7"/>
<path d="M107.547 43.1034C109.923 43.1034 111.849 41.1736 111.849 38.7931C111.849 36.4126 109.923 34.4828 107.547 34.4828C105.171 34.4828 103.245 36.4126 103.245 38.7931C103.245 41.1736 105.171 43.1034 107.547 43.1034Z" fill="#BAD9E7"/>
<path d="M146.264 38.7931C146.264 41.1736 144.338 43.1034 141.962 43.1034C139.586 43.1034 137.66 41.1736 137.66 38.7931C137.66 36.4126 139.586 34.4828 141.962 34.4828C144.338 34.4828 146.264 36.4126 146.264 38.7931Z" fill="#BAD9E7"/>
<path d="M176.377 43.1034C178.753 43.1034 180.679 41.1736 180.679 38.7931C180.679 36.4126 178.753 34.4828 176.377 34.4828C174.001 34.4828 172.075 36.4126 172.075 38.7931C172.075 41.1736 174.001 43.1034 176.377 43.1034Z" fill="#BAD9E7"/>
<path d="M215.094 38.7931C215.094 41.1736 213.168 43.1034 210.792 43.1034C208.417 43.1034 206.491 41.1736 206.491 38.7931C206.491 36.4126 208.417 34.4828 210.792 34.4828C213.168 34.4828 215.094 36.4126 215.094 38.7931Z" fill="#BAD9E7"/>
<path d="M245.208 43.1034C247.583 43.1034 249.509 41.1736 249.509 38.7931C249.509 36.4126 247.583 34.4828 245.208 34.4828C242.832 34.4828 240.906 36.4126 240.906 38.7931C240.906 41.1736 242.832 43.1034 245.208 43.1034Z" fill="#BAD9E7"/>
<path d="M283.925 38.7931C283.925 41.1736 281.999 43.1034 279.623 43.1034C277.247 43.1034 275.321 41.1736 275.321 38.7931C275.321 36.4126 277.247 34.4828 279.623 34.4828C281.999 34.4828 283.925 36.4126 283.925 38.7931Z" fill="#BAD9E7"/>
<path d="M314.038 43.1034C316.414 43.1034 318.34 41.1736 318.34 38.7931C318.34 36.4126 316.414 34.4828 314.038 34.4828C311.662 34.4828 309.736 36.4126 309.736 38.7931C309.736 41.1736 311.662 43.1034 314.038 43.1034Z" fill="#BAD9E7"/>
<path d="M352.755 38.7931C352.755 41.1736 350.829 43.1034 348.453 43.1034C346.077 43.1034 344.151 41.1736 344.151 38.7931C344.151 36.4126 346.077 34.4828 348.453 34.4828C350.829 34.4828 352.755 36.4126 352.755 38.7931Z" fill="#BAD9E7"/>
<path d="M382.868 43.1034C385.244 43.1034 387.17 41.1736 387.17 38.7931C387.17 36.4126 385.244 34.4828 382.868 34.4828C380.492 34.4828 378.566 36.4126 378.566 38.7931C378.566 41.1736 380.492 43.1034 382.868 43.1034Z" fill="#BAD9E7"/>
<path d="M421.585 38.7931C421.585 41.1736 419.659 43.1034 417.283 43.1034C414.907 43.1034 412.981 41.1736 412.981 38.7931C412.981 36.4126 414.907 34.4828 417.283 34.4828C419.659 34.4828 421.585 36.4126 421.585 38.7931Z" fill="#BAD9E7"/>
<path d="M451.698 43.1034C454.074 43.1034 456 41.1736 456 38.7931C456 36.4126 454.074 34.4828 451.698 34.4828C449.322 34.4828 447.396 36.4126 447.396 38.7931C447.396 41.1736 449.322 43.1034 451.698 43.1034Z" fill="#BAD9E7"/>
<path d="M8.60377 73.2759C8.60377 75.6564 6.6778 77.5862 4.30189 77.5862C1.92598 77.5862 0 75.6564 0 73.2759C0 70.8953 1.92598 68.9655 4.30189 68.9655C6.6778 68.9655 8.60377 70.8953 8.60377 73.2759Z" fill="#BAD9E7"/>
<path d="M38.717 77.5862C41.0929 77.5862 43.0189 75.6564 43.0189 73.2759C43.0189 70.8953 41.0929 68.9655 38.717 68.9655C36.3411 68.9655 34.4151 70.8953 34.4151 73.2759C34.4151 75.6564 36.3411 77.5862 38.717 77.5862Z" fill="#BAD9E7"/>
<path d="M77.434 73.2759C77.434 75.6564 75.508 77.5862 73.1321 77.5862C70.7562 77.5862 68.8302 75.6564 68.8302 73.2759C68.8302 70.8953 70.7562 68.9655 73.1321 68.9655C75.508 68.9655 77.434 70.8953 77.434 73.2759Z" fill="#BAD9E7"/>
<path d="M107.547 77.5862C109.923 77.5862 111.849 75.6564 111.849 73.2759C111.849 70.8953 109.923 68.9655 107.547 68.9655C105.171 68.9655 103.245 70.8953 103.245 73.2759C103.245 75.6564 105.171 77.5862 107.547 77.5862Z" fill="#BAD9E7"/>
<path d="M146.264 73.2759C146.264 75.6564 144.338 77.5862 141.962 77.5862C139.586 77.5862 137.66 75.6564 137.66 73.2759C137.66 70.8953 139.586 68.9655 141.962 68.9655C144.338 68.9655 146.264 70.8953 146.264 73.2759Z" fill="#BAD9E7"/>
<path d="M176.377 77.5862C178.753 77.5862 180.679 75.6564 180.679 73.2759C180.679 70.8953 178.753 68.9655 176.377 68.9655C174.001 68.9655 172.075 70.8953 172.075 73.2759C172.075 75.6564 174.001 77.5862 176.377 77.5862Z" fill="#BAD9E7"/>
<path d="M215.094 73.2759C215.094 75.6564 213.168 77.5862 210.792 77.5862C208.417 77.5862 206.491 75.6564 206.491 73.2759C206.491 70.8953 208.417 68.9655 210.792 68.9655C213.168 68.9655 215.094 70.8953 215.094 73.2759Z" fill="#BAD9E7"/>
<path d="M245.208 77.5862C247.583 77.5862 249.509 75.6564 249.509 73.2759C249.509 70.8953 247.583 68.9655 245.208 68.9655C242.832 68.9655 240.906 70.8953 240.906 73.2759C240.906 75.6564 242.832 77.5862 245.208 77.5862Z" fill="#BAD9E7"/>
<path d="M283.925 73.2759C283.925 75.6564 281.999 77.5862 279.623 77.5862C277.247 77.5862 275.321 75.6564 275.321 73.2759C275.321 70.8953 277.247 68.9655 279.623 68.9655C281.999 68.9655 283.925 70.8953 283.925 73.2759Z" fill="#BAD9E7"/>
<path d="M314.038 77.5862C316.414 77.5862 318.34 75.6564 318.34 73.2759C318.34 70.8953 316.414 68.9655 314.038 68.9655C311.662 68.9655 309.736 70.8953 309.736 73.2759C309.736 75.6564 311.662 77.5862 314.038 77.5862Z" fill="#BAD9E7"/>
<path d="M352.755 73.2759C352.755 75.6564 350.829 77.5862 348.453 77.5862C346.077 77.5862 344.151 75.6564 344.151 73.2759C344.151 70.8953 346.077 68.9655 348.453 68.9655C350.829 68.9655 352.755 70.8953 352.755 73.2759Z" fill="#BAD9E7"/>
<path d="M382.868 77.5862C385.244 77.5862 387.17 75.6564 387.17 73.2759C387.17 70.8953 385.244 68.9655 382.868 68.9655C380.492 68.9655 378.566 70.8953 378.566 73.2759C378.566 75.6564 380.492 77.5862 382.868 77.5862Z" fill="#BAD9E7"/>
<path d="M421.585 73.2759C421.585 75.6564 419.659 77.5862 417.283 77.5862C414.907 77.5862 412.981 75.6564 412.981 73.2759C412.981 70.8953 414.907 68.9655 417.283 68.9655C419.659 68.9655 421.585 70.8953 421.585 73.2759Z" fill="#BAD9E7"/>
<path d="M451.698 77.5862C454.074 77.5862 456 75.6564 456 73.2759C456 70.8953 454.074 68.9655 451.698 68.9655C449.322 68.9655 447.396 70.8953 447.396 73.2759C447.396 75.6564 449.322 77.5862 451.698 77.5862Z" fill="#BAD9E7"/>
<path d="M8.60377 107.759C8.60377 110.139 6.6778 112.069 4.30189 112.069C1.92598 112.069 0 110.139 0 107.759C0 105.378 1.92598 103.448 4.30189 103.448C6.6778 103.448 8.60377 105.378 8.60377 107.759Z" fill="#BAD9E7"/>
<path d="M38.717 112.069C41.0929 112.069 43.0189 110.139 43.0189 107.759C43.0189 105.378 41.0929 103.448 38.717 103.448C36.3411 103.448 34.4151 105.378 34.4151 107.759C34.4151 110.139 36.3411 112.069 38.717 112.069Z" fill="#BAD9E7"/>
<path d="M77.434 107.759C77.434 110.139 75.508 112.069 73.1321 112.069C70.7562 112.069 68.8302 110.139 68.8302 107.759C68.8302 105.378 70.7562 103.448 73.1321 103.448C75.508 103.448 77.434 105.378 77.434 107.759Z" fill="#BAD9E7"/>
<path d="M107.547 112.069C109.923 112.069 111.849 110.139 111.849 107.759C111.849 105.378 109.923 103.448 107.547 103.448C105.171 103.448 103.245 105.378 103.245 107.759C103.245 110.139 105.171 112.069 107.547 112.069Z" fill="#BAD9E7"/>
<path d="M146.264 107.759C146.264 110.139 144.338 112.069 141.962 112.069C139.586 112.069 137.66 110.139 137.66 107.759C137.66 105.378 139.586 103.448 141.962 103.448C144.338 103.448 146.264 105.378 146.264 107.759Z" fill="#BAD9E7"/>
<path d="M176.377 112.069C178.753 112.069 180.679 110.139 180.679 107.759C180.679 105.378 178.753 103.448 176.377 103.448C174.001 103.448 172.075 105.378 172.075 107.759C172.075 110.139 174.001 112.069 176.377 112.069Z" fill="#BAD9E7"/>
<path d="M215.094 107.759C215.094 110.139 213.168 112.069 210.792 112.069C208.417 112.069 206.491 110.139 206.491 107.759C206.491 105.378 208.417 103.448 210.792 103.448C213.168 103.448 215.094 105.378 215.094 107.759Z" fill="#BAD9E7"/>
<path d="M245.208 112.069C247.583 112.069 249.509 110.139 249.509 107.759C249.509 105.378 247.583 103.448 245.208 103.448C242.832 103.448 240.906 105.378 240.906 107.759C240.906 110.139 242.832 112.069 245.208 112.069Z" fill="#BAD9E7"/>
<path d="M283.925 107.759C283.925 110.139 281.999 112.069 279.623 112.069C277.247 112.069 275.321 110.139 275.321 107.759C275.321 105.378 277.247 103.448 279.623 103.448C281.999 103.448 283.925 105.378 283.925 107.759Z" fill="#BAD9E7"/>
<path d="M314.038 112.069C316.414 112.069 318.34 110.139 318.34 107.759C318.34 105.378 316.414 103.448 314.038 103.448C311.662 103.448 309.736 105.378 309.736 107.759C309.736 110.139 311.662 112.069 314.038 112.069Z" fill="#BAD9E7"/>
<path d="M352.755 107.759C352.755 110.139 350.829 112.069 348.453 112.069C346.077 112.069 344.151 110.139 344.151 107.759C344.151 105.378 346.077 103.448 348.453 103.448C350.829 103.448 352.755 105.378 352.755 107.759Z" fill="#BAD9E7"/>
<path d="M382.868 112.069C385.244 112.069 387.17 110.139 387.17 107.759C387.17 105.378 385.244 103.448 382.868 103.448C380.492 103.448 378.566 105.378 378.566 107.759C378.566 110.139 380.492 112.069 382.868 112.069Z" fill="#BAD9E7"/>
<path d="M421.585 107.759C421.585 110.139 419.659 112.069 417.283 112.069C414.907 112.069 412.981 110.139 412.981 107.759C412.981 105.378 414.907 103.448 417.283 103.448C419.659 103.448 421.585 105.378 421.585 107.759Z" fill="#BAD9E7"/>
<path d="M451.698 112.069C454.074 112.069 456 110.139 456 107.759C456 105.378 454.074 103.448 451.698 103.448C449.322 103.448 447.396 105.378 447.396 107.759C447.396 110.139 449.322 112.069 451.698 112.069Z" fill="#BAD9E7"/>
<path d="M8.60377 142.241C8.60377 144.622 6.6778 146.552 4.30189 146.552C1.92598 146.552 0 144.622 0 142.241C0 139.861 1.92598 137.931 4.30189 137.931C6.6778 137.931 8.60377 139.861 8.60377 142.241Z" fill="#BAD9E7"/>
<path d="M38.717 146.552C41.0929 146.552 43.0189 144.622 43.0189 142.241C43.0189 139.861 41.0929 137.931 38.717 137.931C36.3411 137.931 34.4151 139.861 34.4151 142.241C34.4151 144.622 36.3411 146.552 38.717 146.552Z" fill="#BAD9E7"/>
<path d="M77.434 142.241C77.434 144.622 75.508 146.552 73.1321 146.552C70.7562 146.552 68.8302 144.622 68.8302 142.241C68.8302 139.861 70.7562 137.931 73.1321 137.931C75.508 137.931 77.434 139.861 77.434 142.241Z" fill="#BAD9E7"/>
<path d="M107.547 146.552C109.923 146.552 111.849 144.622 111.849 142.241C111.849 139.861 109.923 137.931 107.547 137.931C105.171 137.931 103.245 139.861 103.245 142.241C103.245 144.622 105.171 146.552 107.547 146.552Z" fill="#BAD9E7"/>
<path d="M146.264 142.241C146.264 144.622 144.338 146.552 141.962 146.552C139.586 146.552 137.66 144.622 137.66 142.241C137.66 139.861 139.586 137.931 141.962 137.931C144.338 137.931 146.264 139.861 146.264 142.241Z" fill="#BAD9E7"/>
<path d="M176.377 146.552C178.753 146.552 180.679 144.622 180.679 142.241C180.679 139.861 178.753 137.931 176.377 137.931C174.001 137.931 172.075 139.861 172.075 142.241C172.075 144.622 174.001 146.552 176.377 146.552Z" fill="#BAD9E7"/>
<path d="M215.094 142.241C215.094 144.622 213.168 146.552 210.792 146.552C208.417 146.552 206.491 144.622 206.491 142.241C206.491 139.861 208.417 137.931 210.792 137.931C213.168 137.931 215.094 139.861 215.094 142.241Z" fill="#BAD9E7"/>
<path d="M245.208 146.552C247.583 146.552 249.509 144.622 249.509 142.241C249.509 139.861 247.583 137.931 245.208 137.931C242.832 137.931 240.906 139.861 240.906 142.241C240.906 144.622 242.832 146.552 245.208 146.552Z" fill="#BAD9E7"/>
<path d="M283.925 142.241C283.925 144.622 281.999 146.552 279.623 146.552C277.247 146.552 275.321 144.622 275.321 142.241C275.321 139.861 277.247 137.931 279.623 137.931C281.999 137.931 283.925 139.861 283.925 142.241Z" fill="#BAD9E7"/>
<path d="M314.038 146.552C316.414 146.552 318.34 144.622 318.34 142.241C318.34 139.861 316.414 137.931 314.038 137.931C311.662 137.931 309.736 139.861 309.736 142.241C309.736 144.622 311.662 146.552 314.038 146.552Z" fill="#BAD9E7"/>
<path d="M352.755 142.241C352.755 144.622 350.829 146.552 348.453 146.552C346.077 146.552 344.151 144.622 344.151 142.241C344.151 139.861 346.077 137.931 348.453 137.931C350.829 137.931 352.755 139.861 352.755 142.241Z" fill="#BAD9E7"/>
<path d="M382.868 146.552C385.244 146.552 387.17 144.622 387.17 142.241C387.17 139.861 385.244 137.931 382.868 137.931C380.492 137.931 378.566 139.861 378.566 142.241C378.566 144.622 380.492 146.552 382.868 146.552Z" fill="#BAD9E7"/>
<path d="M421.585 142.241C421.585 144.622 419.659 146.552 417.283 146.552C414.907 146.552 412.981 144.622 412.981 142.241C412.981 139.861 414.907 137.931 417.283 137.931C419.659 137.931 421.585 139.861 421.585 142.241Z" fill="#BAD9E7"/>
<path d="M451.698 146.552C454.074 146.552 456 144.622 456 142.241C456 139.861 454.074 137.931 451.698 137.931C449.322 137.931 447.396 139.861 447.396 142.241C447.396 144.622 449.322 146.552 451.698 146.552Z" fill="#BAD9E7"/>
<path d="M8.60377 176.724C8.60377 179.105 6.6778 181.034 4.30189 181.034C1.92598 181.034 0 179.105 0 176.724C0 174.344 1.92598 172.414 4.30189 172.414C6.6778 172.414 8.60377 174.344 8.60377 176.724Z" fill="#BAD9E7"/>
<path d="M38.717 181.034C41.0929 181.034 43.0189 179.105 43.0189 176.724C43.0189 174.344 41.0929 172.414 38.717 172.414C36.3411 172.414 34.4151 174.344 34.4151 176.724C34.4151 179.105 36.3411 181.034 38.717 181.034Z" fill="#BAD9E7"/>
<path d="M77.434 176.724C77.434 179.105 75.508 181.034 73.1321 181.034C70.7562 181.034 68.8302 179.105 68.8302 176.724C68.8302 174.344 70.7562 172.414 73.1321 172.414C75.508 172.414 77.434 174.344 77.434 176.724Z" fill="#BAD9E7"/>
<path d="M107.547 181.034C109.923 181.034 111.849 179.105 111.849 176.724C111.849 174.344 109.923 172.414 107.547 172.414C105.171 172.414 103.245 174.344 103.245 176.724C103.245 179.105 105.171 181.034 107.547 181.034Z" fill="#BAD9E7"/>
<path d="M146.264 176.724C146.264 179.105 144.338 181.034 141.962 181.034C139.586 181.034 137.66 179.105 137.66 176.724C137.66 174.344 139.586 172.414 141.962 172.414C144.338 172.414 146.264 174.344 146.264 176.724Z" fill="#BAD9E7"/>
<path d="M176.377 181.034C178.753 181.034 180.679 179.105 180.679 176.724C180.679 174.344 178.753 172.414 176.377 172.414C174.001 172.414 172.075 174.344 172.075 176.724C172.075 179.105 174.001 181.034 176.377 181.034Z" fill="#BAD9E7"/>
<path d="M215.094 176.724C215.094 179.105 213.168 181.034 210.792 181.034C208.417 181.034 206.491 179.105 206.491 176.724C206.491 174.344 208.417 172.414 210.792 172.414C213.168 172.414 215.094 174.344 215.094 176.724Z" fill="#BAD9E7"/>
<path d="M245.208 181.034C247.583 181.034 249.509 179.105 249.509 176.724C249.509 174.344 247.583 172.414 245.208 172.414C242.832 172.414 240.906 174.344 240.906 176.724C240.906 179.105 242.832 181.034 245.208 181.034Z" fill="#BAD9E7"/>
<path d="M283.925 176.724C283.925 179.105 281.999 181.034 279.623 181.034C277.247 181.034 275.321 179.105 275.321 176.724C275.321 174.344 277.247 172.414 279.623 172.414C281.999 172.414 283.925 174.344 283.925 176.724Z" fill="#BAD9E7"/>
<path d="M314.038 181.034C316.414 181.034 318.34 179.105 318.34 176.724C318.34 174.344 316.414 172.414 314.038 172.414C311.662 172.414 309.736 174.344 309.736 176.724C309.736 179.105 311.662 181.034 314.038 181.034Z" fill="#BAD9E7"/>
<path d="M352.755 176.724C352.755 179.105 350.829 181.034 348.453 181.034C346.077 181.034 344.151 179.105 344.151 176.724C344.151 174.344 346.077 172.414 348.453 172.414C350.829 172.414 352.755 174.344 352.755 176.724Z" fill="#BAD9E7"/>
<path d="M382.868 181.034C385.244 181.034 387.17 179.105 387.17 176.724C387.17 174.344 385.244 172.414 382.868 172.414C380.492 172.414 378.566 174.344 378.566 176.724C378.566 179.105 380.492 181.034 382.868 181.034Z" fill="#BAD9E7"/>
<path d="M421.585 176.724C421.585 179.105 419.659 181.034 417.283 181.034C414.907 181.034 412.981 179.105 412.981 176.724C412.981 174.344 414.907 172.414 417.283 172.414C419.659 172.414 421.585 174.344 421.585 176.724Z" fill="#BAD9E7"/>
<path d="M451.698 181.034C454.074 181.034 456 179.105 456 176.724C456 174.344 454.074 172.414 451.698 172.414C449.322 172.414 447.396 174.344 447.396 176.724C447.396 179.105 449.322 181.034 451.698 181.034Z" fill="#BAD9E7"/>
<path d="M8.60377 211.207C8.60377 213.587 6.6778 215.517 4.30189 215.517C1.92598 215.517 0 213.587 0 211.207C0 208.826 1.92598 206.897 4.30189 206.897C6.6778 206.897 8.60377 208.826 8.60377 211.207Z" fill="#BAD9E7"/>
<path d="M38.717 215.517C41.0929 215.517 43.0189 213.587 43.0189 211.207C43.0189 208.826 41.0929 206.897 38.717 206.897C36.3411 206.897 34.4151 208.826 34.4151 211.207C34.4151 213.587 36.3411 215.517 38.717 215.517Z" fill="#BAD9E7"/>
<path d="M77.434 211.207C77.434 213.587 75.508 215.517 73.1321 215.517C70.7562 215.517 68.8302 213.587 68.8302 211.207C68.8302 208.826 70.7562 206.897 73.1321 206.897C75.508 206.897 77.434 208.826 77.434 211.207Z" fill="#BAD9E7"/>
<path d="M107.547 215.517C109.923 215.517 111.849 213.587 111.849 211.207C111.849 208.826 109.923 206.897 107.547 206.897C105.171 206.897 103.245 208.826 103.245 211.207C103.245 213.587 105.171 215.517 107.547 215.517Z" fill="#BAD9E7"/>
<path d="M146.264 211.207C146.264 213.587 144.338 215.517 141.962 215.517C139.586 215.517 137.66 213.587 137.66 211.207C137.66 208.826 139.586 206.897 141.962 206.897C144.338 206.897 146.264 208.826 146.264 211.207Z" fill="#BAD9E7"/>
<path d="M176.377 215.517C178.753 215.517 180.679 213.587 180.679 211.207C180.679 208.826 178.753 206.897 176.377 206.897C174.001 206.897 172.075 208.826 172.075 211.207C172.075 213.587 174.001 215.517 176.377 215.517Z" fill="#BAD9E7"/>
<path d="M215.094 211.207C215.094 213.587 213.168 215.517 210.792 215.517C208.417 215.517 206.491 213.587 206.491 211.207C206.491 208.826 208.417 206.897 210.792 206.897C213.168 206.897 215.094 208.826 215.094 211.207Z" fill="#BAD9E7"/>
<path d="M245.208 215.517C247.583 215.517 249.509 213.587 249.509 211.207C249.509 208.826 247.583 206.897 245.208 206.897C242.832 206.897 240.906 208.826 240.906 211.207C240.906 213.587 242.832 215.517 245.208 215.517Z" fill="#BAD9E7"/>
<path d="M283.925 211.207C283.925 213.587 281.999 215.517 279.623 215.517C277.247 215.517 275.321 213.587 275.321 211.207C275.321 208.826 277.247 206.897 279.623 206.897C281.999 206.897 283.925 208.826 283.925 211.207Z" fill="#BAD9E7"/>
<path d="M314.038 215.517C316.414 215.517 318.34 213.587 318.34 211.207C318.34 208.826 316.414 206.897 314.038 206.897C311.662 206.897 309.736 208.826 309.736 211.207C309.736 213.587 311.662 215.517 314.038 215.517Z" fill="#BAD9E7"/>
<path d="M352.755 211.207C352.755 213.587 350.829 215.517 348.453 215.517C346.077 215.517 344.151 213.587 344.151 211.207C344.151 208.826 346.077 206.897 348.453 206.897C350.829 206.897 352.755 208.826 352.755 211.207Z" fill="#BAD9E7"/>
<path d="M382.868 215.517C385.244 215.517 387.17 213.587 387.17 211.207C387.17 208.826 385.244 206.897 382.868 206.897C380.492 206.897 378.566 208.826 378.566 211.207C378.566 213.587 380.492 215.517 382.868 215.517Z" fill="#BAD9E7"/>
<path d="M421.585 211.207C421.585 213.587 419.659 215.517 417.283 215.517C414.907 215.517 412.981 213.587 412.981 211.207C412.981 208.826 414.907 206.897 417.283 206.897C419.659 206.897 421.585 208.826 421.585 211.207Z" fill="#BAD9E7"/>
<path d="M451.698 215.517C454.074 215.517 456 213.587 456 211.207C456 208.826 454.074 206.897 451.698 206.897C449.322 206.897 447.396 208.826 447.396 211.207C447.396 213.587 449.322 215.517 451.698 215.517Z" fill="#BAD9E7"/>
<path d="M8.60377 245.69C8.60377 248.07 6.6778 250 4.30189 250C1.92598 250 0 248.07 0 245.69C0 243.309 1.92598 241.379 4.30189 241.379C6.6778 241.379 8.60377 243.309 8.60377 245.69Z" fill="#BAD9E7"/>
<path d="M38.717 250C41.0929 250 43.0189 248.07 43.0189 245.69C43.0189 243.309 41.0929 241.379 38.717 241.379C36.3411 241.379 34.4151 243.309 34.4151 245.69C34.4151 248.07 36.3411 250 38.717 250Z" fill="#BAD9E7"/>
<path d="M77.434 245.69C77.434 248.07 75.508 250 73.1321 250C70.7562 250 68.8302 248.07 68.8302 245.69C68.8302 243.309 70.7562 241.379 73.1321 241.379C75.508 241.379 77.434 243.309 77.434 245.69Z" fill="#BAD9E7"/>
<path d="M107.547 250C109.923 250 111.849 248.07 111.849 245.69C111.849 243.309 109.923 241.379 107.547 241.379C105.171 241.379 103.245 243.309 103.245 245.69C103.245 248.07 105.171 250 107.547 250Z" fill="#BAD9E7"/>
<path d="M146.264 245.69C146.264 248.07 144.338 250 141.962 250C139.586 250 137.66 248.07 137.66 245.69C137.66 243.309 139.586 241.379 141.962 241.379C144.338 241.379 146.264 243.309 146.264 245.69Z" fill="#BAD9E7"/>
<path d="M176.377 250C178.753 250 180.679 248.07 180.679 245.69C180.679 243.309 178.753 241.379 176.377 241.379C174.001 241.379 172.075 243.309 172.075 245.69C172.075 248.07 174.001 250 176.377 250Z" fill="#BAD9E7"/>
<path d="M215.094 245.69C215.094 248.07 213.168 250 210.792 250C208.417 250 206.491 248.07 206.491 245.69C206.491 243.309 208.417 241.379 210.792 241.379C213.168 241.379 215.094 243.309 215.094 245.69Z" fill="#BAD9E7"/>
<path d="M245.208 250C247.583 250 249.509 248.07 249.509 245.69C249.509 243.309 247.583 241.379 245.208 241.379C242.832 241.379 240.906 243.309 240.906 245.69C240.906 248.07 242.832 250 245.208 250Z" fill="#BAD9E7"/>
<path d="M283.925 245.69C283.925 248.07 281.999 250 279.623 250C277.247 250 275.321 248.07 275.321 245.69C275.321 243.309 277.247 241.379 279.623 241.379C281.999 241.379 283.925 243.309 283.925 245.69Z" fill="#BAD9E7"/>
<path d="M314.038 250C316.414 250 318.34 248.07 318.34 245.69C318.34 243.309 316.414 241.379 314.038 241.379C311.662 241.379 309.736 243.309 309.736 245.69C309.736 248.07 311.662 250 314.038 250Z" fill="#BAD9E7"/>
<path d="M352.755 245.69C352.755 248.07 350.829 250 348.453 250C346.077 250 344.151 248.07 344.151 245.69C344.151 243.309 346.077 241.379 348.453 241.379C350.829 241.379 352.755 243.309 352.755 245.69Z" fill="#BAD9E7"/>
<path d="M382.868 250C385.244 250 387.17 248.07 387.17 245.69C387.17 243.309 385.244 241.379 382.868 241.379C380.492 241.379 378.566 243.309 378.566 245.69C378.566 248.07 380.492 250 382.868 250Z" fill="#BAD9E7"/>
<path d="M421.585 245.69C421.585 248.07 419.659 250 417.283 250C414.907 250 412.981 248.07 412.981 245.69C412.981 243.309 414.907 241.379 417.283 241.379C419.659 241.379 421.585 243.309 421.585 245.69Z" fill="#BAD9E7"/>
<path d="M451.698 250C454.074 250 456 248.07 456 245.69C456 243.309 454.074 241.379 451.698 241.379C449.322 241.379 447.396 243.309 447.396 245.69C447.396 248.07 449.322 250 451.698 250Z" fill="#BAD9E7"/>
</g>
<defs>
<linearGradient id="paint0_linear" x1="57.029" y1="182.166" x2="445.029" y2="182.166" gradientUnits="userSpaceOnUse">
<stop stop-color="#BAD9E7" stop-opacity="0.44"/>
<stop offset="1" stop-color="white"/>
</linearGradient>
</defs>
</svg>
