<svg width="14" height="14" viewBox="0 0 14 14" fill="none" xmlns="http://www.w3.org/2000/svg">
<path d="M11.0834 6.41658H7.58337V2.91659C7.58337 2.76188 7.52191 2.6135 7.41252 2.50411C7.30312 2.39471 7.15475 2.33325 7.00004 2.33325C6.84533 2.33325 6.69696 2.39471 6.58756 2.50411C6.47817 2.6135 6.41671 2.76188 6.41671 2.91659V6.41658H2.91671C2.762 6.41658 2.61362 6.47804 2.50423 6.58744C2.39483 6.69684 2.33337 6.84521 2.33337 6.99992C2.33337 7.15463 2.39483 7.303 2.50423 7.4124C2.61362 7.52179 2.762 7.58325 2.91671 7.58325H6.41671V11.0833C6.41671 11.238 6.47817 11.3863 6.58756 11.4957C6.69696 11.6051 6.84533 11.6666 7.00004 11.6666C7.15475 11.6666 7.30312 11.6051 7.41252 11.4957C7.52191 11.3863 7.58337 11.238 7.58337 11.0833V7.58325H11.0834C11.2381 7.58325 11.3865 7.52179 11.4959 7.4124C11.6052 7.303 11.6667 7.15463 11.6667 6.99992C11.6667 6.84521 11.6052 6.69684 11.4959 6.58744C11.3865 6.47804 11.2381 6.41658 11.0834 6.41658Z" fill="#111563" stroke="#111563" stroke-width="0.5"/>
</svg>
