<svg width="135" height="22" viewBox="0 0 135 22" fill="none" xmlns="http://www.w3.org/2000/svg">
<path d="M11.5 0L14.2148 8.40325H23L15.8926 13.5967L18.6074 22L11.5 16.8065L4.39261 22L7.10739 13.5967L0 8.40325H8.78522L11.5 0Z" fill="#C774EE"/>
<path d="M39.5 0L42.2148 8.40325H51L43.8926 13.5967L46.6074 22L39.5 16.8065L32.3926 22L35.1074 13.5967L28 8.40325H36.7852L39.5 0Z" fill="#C774EE"/>
<path d="M67.5 0L70.2148 8.40325H79L71.8926 13.5967L74.6074 22L67.5 16.8065L60.3926 22L63.1074 13.5967L56 8.40325H64.7852L67.5 0Z" fill="#C774EE"/>
<path d="M95.5 0L98.2148 8.40325H107L99.8926 13.5967L102.607 22L95.5 16.8065L88.3926 22L91.1074 13.5967L84 8.40325H92.7852L95.5 0Z" fill="#C774EE"/>
<path d="M123.5 0L126.215 8.40325H135L127.893 13.5967L130.607 22L123.5 16.8065L116.393 22L119.107 13.5967L112 8.40325H120.785L123.5 0Z" fill="#C774EE"/>
</svg>
